<?xml version="1.0" encoding="UTF-8"?>
<!DOCTYPE svg PUBLIC "-//W3C//DTD SVG 1.1//EN" "http://www.w3.org/Graphics/SVG/1.1/DTD/svg11.dtd">
<svg xmlns="http://www.w3.org/2000/svg" xmlns:xlink="http://www.w3.org/1999/xlink" version="1.1" width="1822px" height="852px" viewBox="-0.5 -0.5 1822 852"><defs/><g><g data-cell-id="0"><g data-cell-id="1"><g data-cell-id="2"><g><rect x="0" y="0" width="1800" height="80" fill="#1f2937" stroke="#111827" pointer-events="all"/></g><g><g transform="translate(-0.5 -0.5)"><switch><foreignObject pointer-events="none" width="100%" height="100%" requiredFeatures="http://www.w3.org/TR/SVG11/feature#Extensibility" style="overflow: visible; text-align: left;"><div xmlns="http://www.w3.org/1999/xhtml" style="display: flex; align-items: unsafe center; justify-content: unsafe center; width: 1782px; height: 1px; padding-top: 40px; margin-left: 9px;"><div data-drawio-colors="color: #FFFFFF; " style="box-sizing: border-box; font-size: 0px; text-align: center;"><div style="display: inline-block; font-size: 26px; font-family: Helvetica; color: rgb(255, 255, 255); line-height: 1.2; pointer-events: all; font-weight: bold; white-space: normal; overflow-wrap: normal;">Certifications Archive And Catalog Architecture</div></div></div></foreignObject><text x="900" y="48" fill="#FFFFFF" font-family="&quot;Helvetica&quot;" font-size="26px" text-anchor="middle" font-weight="bold">Certifications Archive And Catalog Architecture</text></switch></g></g></g><g data-cell-id="10"><g><rect x="20" y="150" width="240" height="80" rx="12" ry="12" fill="#fce7f3" stroke="#db2777" pointer-events="all"/></g><g><g transform="translate(-0.5 -0.5)"><switch><foreignObject pointer-events="none" width="100%" height="100%" requiredFeatures="http://www.w3.org/TR/SVG11/feature#Extensibility" style="overflow: visible; text-align: left;"><div xmlns="http://www.w3.org/1999/xhtml" style="display: flex; align-items: unsafe center; justify-content: unsafe center; width: 226px; height: 1px; padding-top: 190px; margin-left: 27px;"><div data-drawio-colors="color: #111827; " style="box-sizing: border-box; font-size: 0px; text-align: center;"><div style="display: inline-block; font-size: 18px; font-family: Helvetica; color: rgb(17, 24, 39); line-height: 1.2; pointer-events: all; white-space: normal; overflow-wrap: normal;">Contributor / Curator</div></div></div></foreignObject><text x="140" y="195" fill="#111827" font-family="&quot;Helvetica&quot;" font-size="18px" text-anchor="middle">Contributor / Curator</text></switch></g></g></g><g data-cell-id="20"><g><rect x="360" y="130" width="320" height="100" rx="15" ry="15" fill="#dbeafe" stroke="#2563eb" pointer-events="all"/></g><g><g transform="translate(-0.5 -0.5)"><switch><foreignObject pointer-events="none" width="100%" height="100%" requiredFeatures="http://www.w3.org/TR/SVG11/feature#Extensibility" style="overflow: visible; text-align: left;"><div xmlns="http://www.w3.org/1999/xhtml" style="display: flex; align-items: unsafe center; justify-content: unsafe center; width: 306px; height: 1px; padding-top: 180px; margin-left: 367px;"><div data-drawio-colors="color: #111827; " style="box-sizing: border-box; font-size: 0px; text-align: center;"><div style="display: inline-block; font-size: 18px; font-family: Helvetica; color: rgb(17, 24, 39); line-height: 1.2; pointer-events: all; white-space: normal; overflow-wrap: normal;">README.md<br />master public certification index</div></div></div></foreignObject><text x="520" y="185" fill="#111827" font-family="&quot;Helvetica&quot;" font-size="18px" text-anchor="middle">README.md...</text></switch></g></g></g><g data-cell-id="30"><g><rect x="750" y="130" width="300" height="100" rx="15" ry="15" fill="#e0f2fe" stroke="#0284c7" pointer-events="all"/></g><g><g transform="translate(-0.5 -0.5)"><switch><foreignObject pointer-events="none" width="100%" height="100%" requiredFeatures="http://www.w3.org/TR/SVG11/feature#Extensibility" style="overflow: visible; text-align: left;"><div xmlns="http://www.w3.org/1999/xhtml" style="display: flex; align-items: unsafe center; justify-content: unsafe center; width: 286px; height: 1px; padding-top: 180px; margin-left: 757px;"><div data-drawio-colors="color: #111827; " style="box-sizing: border-box; font-size: 0px; text-align: center;"><div style="display: inline-block; font-size: 18px; font-family: Helvetica; color: rgb(17, 24, 39); line-height: 1.2; pointer-events: all; white-space: normal; overflow-wrap: normal;">entry contract<br />course or platform page<br />plus live share link</div></div></div></foreignObject><text x="900" y="185" fill="#111827" font-family="&quot;Helvetica&quot;" font-size="18px" text-anchor="middle">entry contract...</text></switch></g></g></g><g data-cell-id="40"><g><rect x="1120" y="110" width="360" height="140" rx="21" ry="21" fill="#e2e8f0" stroke="#64748b" pointer-events="all"/></g><g><g transform="translate(-0.5 -0.5)"><switch><foreignObject pointer-events="none" width="100%" height="100%" requiredFeatures="http://www.w3.org/TR/SVG11/feature#Extensibility" style="overflow: visible; text-align: left;"><div xmlns="http://www.w3.org/1999/xhtml" style="display: flex; align-items: unsafe center; justify-content: unsafe center; width: 346px; height: 1px; padding-top: 180px; margin-left: 1127px;"><div data-drawio-colors="color: #111827; " style="box-sizing: border-box; font-size: 0px; text-align: center;"><div style="display: inline-block; font-size: 18px; font-family: Helvetica; color: rgb(17, 24, 39); line-height: 1.2; pointer-events: all; white-space: normal; overflow-wrap: normal;">Coursera/README.md<br />Microsoft/README.md<br />TryHackMe/README.md<br />Recognitions/README.md<br />Weber_State/README.md</div></div></div></foreignObject><text x="1300" y="185" fill="#111827" font-family="&quot;Helvetica&quot;" font-size="18px" text-anchor="middle">Coursera/README.md...</text></switch></g></g></g><g data-cell-id="50"><g><rect x="1520" y="130" width="260" height="110" rx="16.5" ry="16.5" fill="#dcfce7" stroke="#16a34a" pointer-events="all"/></g><g><g transform="translate(-0.5 -0.5)"><switch><foreignObject pointer-events="none" width="100%" height="100%" requiredFeatures="http://www.w3.org/TR/SVG11/feature#Extensibility" style="overflow: visible; text-align: left;"><div xmlns="http://www.w3.org/1999/xhtml" style="display: flex; align-items: unsafe center; justify-content: unsafe center; width: 246px; height: 1px; padding-top: 185px; margin-left: 1527px;"><div data-drawio-colors="color: #111827; " style="box-sizing: border-box; font-size: 0px; text-align: center;"><div style="display: inline-block; font-size: 18px; font-family: Helvetica; color: rgb(17, 24, 39); line-height: 1.2; pointer-events: all; white-space: normal; overflow-wrap: normal;">public course pages<br />public shareable certificate links<br />platform profile links</div></div></div></foreignObject><text x="1650" y="190" fill="#111827" font-family="&quot;Helvetica&quot;" font-size="18px" text-anchor="middle">public course pages...</text></switch></g></g></g><g data-cell-id="100"><g><rect x="80" y="410" width="260" height="110" rx="16.5" ry="16.5" fill="#fed7aa" stroke="#ea580c" pointer-events="all"/></g><g><g transform="translate(-0.5 -0.5)"><switch><foreignObject pointer-events="none" width="100%" height="100%" requiredFeatures="http://www.w3.org/TR/SVG11/feature#Extensibility" style="overflow: visible; text-align: left;"><div xmlns="http://www.w3.org/1999/xhtml" style="display: flex; align-items: unsafe center; justify-content: unsafe center; width: 246px; height: 1px; padding-top: 465px; margin-left: 87px;"><div data-drawio-colors="color: #111827; " style="box-sizing: border-box; font-size: 0px; text-align: center;"><div style="display: inline-block; font-size: 18px; font-family: Helvetica; color: rgb(17, 24, 39); line-height: 1.2; pointer-events: all; white-space: normal; overflow-wrap: normal;">Coursera/<br />institution subfolders<br />local PDF certificates</div></div></div></foreignObject><text x="210" y="470" fill="#111827" font-family="&quot;Helvetica&quot;" font-size="18px" text-anchor="middle">Coursera/...</text></switch></g></g></g><g data-cell-id="101"><g><rect x="390" y="410" width="270" height="130" rx="19.5" ry="19.5" fill="#fed7aa" stroke="#ea580c" pointer-events="all"/></g><g><g transform="translate(-0.5 -0.5)"><switch><foreignObject pointer-events="none" width="100%" height="100%" requiredFeatures="http://www.w3.org/TR/SVG11/feature#Extensibility" style="overflow: visible; text-align: left;"><div xmlns="http://www.w3.org/1999/xhtml" style="display: flex; align-items: unsafe center; justify-content: unsafe center; width: 256px; height: 1px; padding-top: 475px; margin-left: 397px;"><div data-drawio-colors="color: #111827; " style="box-sizing: border-box; font-size: 0px; text-align: center;"><div style="display: inline-block; font-size: 18px; font-family: Helvetica; color: rgb(17, 24, 39); line-height: 1.2; pointer-events: all; white-space: normal; overflow-wrap: normal;">Microsoft/<br />Learning_Paths/<br />Modules/<br />local PDF exports</div></div></div></foreignObject><text x="525" y="480" fill="#111827" font-family="&quot;Helvetica&quot;" font-size="18px" text-anchor="middle">Microsoft/...</text></switch></g></g></g><g data-cell-id="102"><g><rect x="720" y="410" width="270" height="130" rx="19.5" ry="19.5" fill="#fed7aa" stroke="#ea580c" pointer-events="all"/></g><g><g transform="translate(-0.5 -0.5)"><switch><foreignObject pointer-events="none" width="100%" height="100%" requiredFeatures="http://www.w3.org/TR/SVG11/feature#Extensibility" style="overflow: visible; text-align: left;"><div xmlns="http://www.w3.org/1999/xhtml" style="display: flex; align-items: unsafe center; justify-content: unsafe center; width: 256px; height: 1px; padding-top: 475px; margin-left: 727px;"><div data-drawio-colors="color: #111827; " style="box-sizing: border-box; font-size: 0px; text-align: center;"><div style="display: inline-block; font-size: 18px; font-family: Helvetica; color: rgb(17, 24, 39); line-height: 1.2; pointer-events: all; white-space: normal; overflow-wrap: normal;">TryHackMe/<br />Certifications/<br />Badges/<br />profile badge image</div></div></div></foreignObject><text x="855" y="480" fill="#111827" font-family="&quot;Helvetica&quot;" font-size="18px" text-anchor="middle">TryHackMe/...</text></switch></g></g></g><g data-cell-id="103"><g><rect x="1050" y="420" width="260" height="110" rx="16.5" ry="16.5" fill="#fed7aa" stroke="#ea580c" pointer-events="all"/></g><g><g transform="translate(-0.5 -0.5)"><switch><foreignObject pointer-events="none" width="100%" height="100%" requiredFeatures="http://www.w3.org/TR/SVG11/feature#Extensibility" style="overflow: visible; text-align: left;"><div xmlns="http://www.w3.org/1999/xhtml" style="display: flex; align-items: unsafe center; justify-content: unsafe center; width: 246px; height: 1px; padding-top: 475px; margin-left: 1057px;"><div data-drawio-colors="color: #111827; " style="box-sizing: border-box; font-size: 0px; text-align: center;"><div style="display: inline-block; font-size: 18px; font-family: Helvetica; color: rgb(17, 24, 39); line-height: 1.2; pointer-events: all; white-space: normal; overflow-wrap: normal;">Recognitions/<br />award and recognition PDFs</div></div></div></foreignObject><text x="1180" y="480" fill="#111827" font-family="&quot;Helvetica&quot;" font-size="18px" text-anchor="middle">Recognitions/...</text></switch></g></g></g><g data-cell-id="104"><g><rect x="1370" y="420" width="240" height="100" rx="15" ry="15" fill="#fed7aa" stroke="#ea580c" pointer-events="all"/></g><g><g transform="translate(-0.5 -0.5)"><switch><foreignObject pointer-events="none" width="100%" height="100%" requiredFeatures="http://www.w3.org/TR/SVG11/feature#Extensibility" style="overflow: visible; text-align: left;"><div xmlns="http://www.w3.org/1999/xhtml" style="display: flex; align-items: unsafe center; justify-content: unsafe center; width: 226px; height: 1px; padding-top: 470px; margin-left: 1377px;"><div data-drawio-colors="color: #111827; " style="box-sizing: border-box; font-size: 0px; text-align: center;"><div style="display: inline-block; font-size: 18px; font-family: Helvetica; color: rgb(17, 24, 39); line-height: 1.2; pointer-events: all; white-space: normal; overflow-wrap: normal;">Weber_State/<br />training credential PDFs</div></div></div></foreignObject><text x="1490" y="475" fill="#111827" font-family="&quot;Helvetica&quot;" font-size="18px" text-anchor="middle">Weber_State/...</text></switch></g></g></g><g data-cell-id="105"><g><rect x="1650" y="420" width="170" height="100" rx="15" ry="15" fill="#fed7aa" stroke="#ea580c" pointer-events="all"/></g><g><g transform="translate(-0.5 -0.5)"><switch><foreignObject pointer-events="none" width="100%" height="100%" requiredFeatures="http://www.w3.org/TR/SVG11/feature#Extensibility" style="overflow: visible; text-align: left;"><div xmlns="http://www.w3.org/1999/xhtml" style="display: flex; align-items: unsafe center; justify-content: unsafe center; width: 156px; height: 1px; padding-top: 470px; margin-left: 1657px;"><div data-drawio-colors="color: #111827; " style="box-sizing: border-box; font-size: 0px; text-align: center;"><div style="display: inline-block; font-size: 18px; font-family: Helvetica; color: rgb(17, 24, 39); line-height: 1.2; pointer-events: all; white-space: normal; overflow-wrap: normal;">LinkedIn/<br />standalone certificate exports</div></div></div></foreignObject><text x="1735" y="475" fill="#111827" font-family="&quot;Helvetica&quot;" font-size="18px" text-anchor="middle">LinkedIn/...</text></switch></g></g></g><g data-cell-id="200"><g><rect x="280" y="740" width="330" height="100" rx="15" ry="15" fill="#fbcfe8" stroke="#ec4899" pointer-events="all"/></g><g><g transform="translate(-0.5 -0.5)"><switch><foreignObject pointer-events="none" width="100%" height="100%" requiredFeatures="http://www.w3.org/TR/SVG11/feature#Extensibility" style="overflow: visible; text-align: left;"><div xmlns="http://www.w3.org/1999/xhtml" style="display: flex; align-items: unsafe center; justify-content: unsafe center; width: 316px; height: 1px; padding-top: 790px; margin-left: 287px;"><div data-drawio-colors="color: #111827; " style="box-sizing: border-box; font-size: 0px; text-align: center;"><div style="display: inline-block; font-size: 18px; font-family: Helvetica; color: rgb(17, 24, 39); line-height: 1.2; pointer-events: all; white-space: normal; overflow-wrap: normal;">.github/workflows/ci.yml<br />light markdown and structure validation</div></div></div></foreignObject><text x="445" y="795" fill="#111827" font-family="&quot;Helvetica&quot;" font-size="18px" text-anchor="middle">.github/workflows/ci.yml...</text></switch></g></g></g><g data-cell-id="210"><g><rect x="720" y="730" width="360" height="120" rx="18" ry="18" fill="#f9a8d4" stroke="#db2777" pointer-events="all"/></g><g><g transform="translate(-0.5 -0.5)"><switch><foreignObject pointer-events="none" width="100%" height="100%" requiredFeatures="http://www.w3.org/TR/SVG11/feature#Extensibility" style="overflow: visible; text-align: left;"><div xmlns="http://www.w3.org/1999/xhtml" style="display: flex; align-items: unsafe center; justify-content: unsafe center; width: 346px; height: 1px; padding-top: 790px; margin-left: 727px;"><div data-drawio-colors="color: #111827; " style="box-sizing: border-box; font-size: 0px; text-align: center;"><div style="display: inline-block; font-size: 18px; font-family: Helvetica; color: rgb(17, 24, 39); line-height: 1.2; pointer-events: all; white-space: normal; overflow-wrap: normal;">docs/contributor-architecture-blueprint.md<br />repo-architecture.puml<br />repo-architecture.drawio</div></div></div></foreignObject><text x="900" y="795" fill="#111827" font-family="&quot;Helvetica&quot;" font-size="18px" text-anchor="middle">docs/contributor-architecture-blueprint...</text></switch></g></g></g><g data-cell-id="500"><g><path d="M 260 190 L 284 190 L 284 163 L 336 163 L 336 180 L 348.76 180" fill="none" stroke="#1f2937" stroke-width="2" stroke-miterlimit="10" pointer-events="stroke"/><path d="M 357.76 180 L 345.76 186 L 348.76 180 L 345.76 174 Z" fill="#1f2937" stroke="#1f2937" stroke-width="2" stroke-miterlimit="10" pointer-events="all"/></g></g><g data-cell-id="501"><g><path d="M 260 190 L 284 190 L 284 106 L 1096 106 L 1096 150 L 1108.76 150" fill="none" stroke="#1f2937" stroke-width="2" stroke-miterlimit="10" pointer-events="stroke"/><path d="M 1117.76 150 L 1105.76 156 L 1108.76 150 L 1105.76 144 Z" fill="#1f2937" stroke="#1f2937" stroke-width="2" stroke-miterlimit="10" pointer-events="all"/></g><g><g fill="rgb(0, 0, 0)" font-family="&quot;Helvetica&quot;" text-anchor="middle" font-size="14px"><rect fill="rgb(255, 255, 255)" stroke="none" x="593" y="98" width="156" height="18" stroke-width="0"/><text x="669.5" y="111.5">update drilldown indexes</text></g></g></g><g data-cell-id="502"><g><path d="M 680 180 L 704 180 L 704 189 L 726 189 L 726 180 L 738.76 180" fill="none" stroke="#1f2937" stroke-width="2" stroke-miterlimit="10" pointer-events="stroke"/><path d="M 747.76 180 L 735.76 186 L 738.76 180 L 735.76 174 Z" fill="#1f2937" stroke="#1f2937" stroke-width="2" stroke-miterlimit="10" pointer-events="all"/></g></g><g data-cell-id="503"><g><path d="M 1050 180 L 1074 180 L 1074 282 L 1496 282 L 1496 185 L 1508.76 185" fill="none" stroke="#16a34a" stroke-width="2" stroke-miterlimit="10" pointer-events="stroke"/><path d="M 1517.76 185 L 1505.76 191 L 1508.76 185 L 1505.76 179 Z" fill="#16a34a" stroke="#16a34a" stroke-width="2" stroke-miterlimit="10" pointer-events="all"/></g></g><g data-cell-id="504"><g><path d="M 1120 180 L 1096 180 L 1096 106 L 704 106 L 704 170 L 691.24 170" fill="none" stroke="#64748b" stroke-width="2" stroke-miterlimit="10" pointer-events="stroke"/><path d="M 682.24 170 L 694.24 164 L 691.24 170 L 694.24 176 Z" fill="#64748b" stroke="#64748b" stroke-width="2" stroke-miterlimit="10" pointer-events="all"/></g><g><g fill="rgb(0, 0, 0)" font-family="&quot;Helvetica&quot;" text-anchor="middle" font-size="14px"><rect fill="rgb(255, 255, 255)" stroke="none" x="840" y="98" width="132" height="18" stroke-width="0"/><text x="904.5" y="111.5">mirror provider slices</text></g></g></g><g data-cell-id="510"><g><path d="M 60 230 L 60 254 L 135 254 L 135 386 L 210 386 L 210 398.76" fill="none" stroke="#ea580c" stroke-width="2" stroke-miterlimit="10" pointer-events="stroke"/><path d="M 210 407.76 L 204 395.76 L 210 398.76 L 216 395.76 Z" fill="#ea580c" stroke="#ea580c" stroke-width="2" stroke-miterlimit="10" pointer-events="all"/></g><g><g fill="rgb(0, 0, 0)" font-family="&quot;Helvetica&quot;" text-anchor="middle" font-size="14px"><rect fill="rgb(255, 255, 255)" stroke="none" x="93" y="312" width="85" height="18" stroke-width="0"/><text x="134.5" y="325.5">add evidence</text></g></g></g><g data-cell-id="511"><g><path d="M 220 230 L 220 254 L 48 254 L 48 386 L 525 386 L 525 398.76" fill="none" stroke="#ea580c" stroke-width="2" stroke-miterlimit="10" pointer-events="stroke"/><path d="M 525 407.76 L 519 395.76 L 525 398.76 L 531 395.76 Z" fill="#ea580c" stroke="#ea580c" stroke-width="2" stroke-miterlimit="10" pointer-events="all"/></g></g><g data-cell-id="512"><g><path d="M 260 190 L 284 190 L 284 323.5 L 696 323.5 L 696 475 L 708.76 475" fill="none" stroke="#ea580c" stroke-width="2" stroke-miterlimit="10" pointer-events="stroke"/><path d="M 717.76 475 L 705.76 481 L 708.76 475 L 705.76 469 Z" fill="#ea580c" stroke="#ea580c" stroke-width="2" stroke-miterlimit="10" pointer-events="all"/></g></g><g data-cell-id="513"><g><path d="M 260 190 L 284 190 L 284 341.5 L 690 341.5 C 690 333.7 702 333.7 702 341.5 L 702 341.5 L 1026 341.5 L 1026 475 L 1038.76 475" fill="none" stroke="#ea580c" stroke-width="2" stroke-miterlimit="10" pointer-events="stroke"/><path d="M 1047.76 475 L 1035.76 481 L 1038.76 475 L 1035.76 469 Z" fill="#ea580c" stroke="#ea580c" stroke-width="2" stroke-miterlimit="10" pointer-events="all"/></g></g><g data-cell-id="514"><g><path d="M 260 190 L 284 190 L 284 321 L 1346 321 L 1346 470 L 1358.76 470" fill="none" stroke="#ea580c" stroke-width="2" stroke-miterlimit="10" pointer-events="stroke"/><path d="M 1367.76 470 L 1355.76 476 L 1358.76 470 L 1355.76 464 Z" fill="#ea580c" stroke="#ea580c" stroke-width="2" stroke-miterlimit="10" pointer-events="all"/></g></g><g data-cell-id="515"><g><path d="M 260 190 L 284 190 L 284 339 L 690 339 C 690 331.2 702 331.2 702 339 L 702 339 L 1340 339 C 1340 331.2 1352 331.2 1352 339 L 1352 339 L 1626 339 L 1626 470 L 1638.76 470" fill="none" stroke="#ea580c" stroke-width="2" stroke-miterlimit="10" pointer-events="stroke"/><path d="M 1647.76 470 L 1635.76 476 L 1638.76 470 L 1635.76 464 Z" fill="#ea580c" stroke="#ea580c" stroke-width="2" stroke-miterlimit="10" pointer-events="all"/></g></g><g data-cell-id="520"><g><path d="M 210 410 L 210 386 L 292 386 L 292 341.5 L 292 339 L 292 323.5 L 292 321 L 292 254 L 400 254 L 400 241.24" fill="none" stroke="#ea580c" stroke-width="2" stroke-miterlimit="10" stroke-dasharray="6 6" pointer-events="stroke"/><path d="M 400 232.24 L 406 244.24 L 400 241.24 L 394 244.24 Z" fill="#ea580c" stroke="#ea580c" stroke-width="2" stroke-miterlimit="10" pointer-events="all"/></g><g><g fill="rgb(0, 0, 0)" font-family="&quot;Helvetica&quot;" text-anchor="middle" font-size="14px"><rect fill="rgb(255, 255, 255)" stroke="none" x="249" y="299" width="88" height="18" stroke-width="0"/><text x="291.5" y="312.5">backs catalog</text></g></g></g><g data-cell-id="521"><g><path d="M 525 410 L 525 386 L 507 386 L 507 341.5 L 507 339 L 507 323.5 L 507 321 L 507 254 L 460 254 L 460 241.24" fill="none" stroke="#ea580c" stroke-width="2" stroke-miterlimit="10" stroke-dasharray="6 6" pointer-events="stroke"/><path d="M 460 232.24 L 466 244.24 L 460 241.24 L 454 244.24 Z" fill="#ea580c" stroke="#ea580c" stroke-width="2" stroke-miterlimit="10" pointer-events="all"/></g></g><g data-cell-id="522"><g><path d="M 855 410 L 855 386 L 696 386 L 692 386 L 692 341.5 L 692 339 L 692 323.5 L 692 321 L 692 254 L 520 254 L 520 241.24" fill="none" stroke="#ea580c" stroke-width="2" stroke-miterlimit="10" stroke-dasharray="6 6" pointer-events="stroke"/><path d="M 520 232.24 L 526 244.24 L 520 241.24 L 514 244.24 Z" fill="#ea580c" stroke="#ea580c" stroke-width="2" stroke-miterlimit="10" pointer-events="all"/></g></g><g data-cell-id="523"><g><path d="M 1050 475 L 1026 475 L 1026 345 C 1033.8 345 1033.8 333 1026 333 L 1026 333 L 1026 321 L 1026 316.8 L 704 316.8 L 704 176.7 L 691.24 176.7" fill="none" stroke="#ea580c" stroke-width="2" stroke-miterlimit="10" stroke-dasharray="6 6" pointer-events="stroke"/><path d="M 682.24 176.7 L 694.24 170.7 L 691.24 176.7 L 694.24 182.7 Z" fill="#ea580c" stroke="#ea580c" stroke-width="2" stroke-miterlimit="10" pointer-events="all"/></g></g><g data-cell-id="524"><g><path d="M 1370 470 L 1346 470 L 1346 339 L 1346 335.7 L 1032 335.7 C 1032 327.9 1020 327.9 1020 335.7 L 1020 335.7 L 704 335.7 L 704 327 C 711.8 327 711.8 315 704 315 L 704 315 L 704 183.3 L 691.24 183.3" fill="none" stroke="#ea580c" stroke-width="2" stroke-miterlimit="10" stroke-dasharray="6 6" pointer-events="stroke"/><path d="M 682.24 183.3 L 694.24 177.3 L 691.24 183.3 L 694.24 189.3 Z" fill="#ea580c" stroke="#ea580c" stroke-width="2" stroke-miterlimit="10" pointer-events="all"/></g></g><g data-cell-id="525"><g><path d="M 1650 470 L 1626 470 L 1626 357 L 1346 357 L 1346 357 L 1032 357 C 1032 349.2 1020 349.2 1020 357 L 1020 357 L 704 357 L 704 341.5 L 704 339 L 704 327 C 711.8 327 711.8 315 704 315 L 704 315 L 704 190 L 691.24 190" fill="none" stroke="#ea580c" stroke-width="2" stroke-miterlimit="10" stroke-dasharray="6 6" pointer-events="stroke"/><path d="M 682.24 190 L 694.24 184 L 691.24 190 L 694.24 196 Z" fill="#ea580c" stroke="#ea580c" stroke-width="2" stroke-miterlimit="10" pointer-events="all"/></g></g><g data-cell-id="530"><g><path d="M 445 740 L 445 716 L 366 716 L 366 392 C 373.8 392 373.8 380 366 380 L 366 380 L 366 341.5 L 366 339 L 366 323.5 L 366 321 L 366 254 L 580 254 L 580 241.24" fill="none" stroke="#ec4899" stroke-width="2" stroke-miterlimit="10" pointer-events="stroke"/><path d="M 580 232.24 L 586 244.24 L 580 241.24 L 574 244.24 Z" fill="#ec4899" stroke="#ec4899" stroke-width="2" stroke-miterlimit="10" pointer-events="all"/></g></g><g data-cell-id="531"><g><path d="M 610 790 L 634 790 L 634 341.5 L 634 339 L 634 323.5 L 634 321 L 634 262 L 686 262 C 686 254.2 698 254.2 698 262 L 698 262 L 704 262 L 704 262 L 704 262 L 1068 262 C 1068 254.2 1080 254.2 1080 262 L 1080 262 L 1096 262 L 1096 210 L 1108.76 210" fill="none" stroke="#ec4899" stroke-width="2" stroke-miterlimit="10" pointer-events="stroke"/><path d="M 1117.76 210 L 1105.76 216 L 1108.76 210 L 1105.76 204 Z" fill="#ec4899" stroke="#ec4899" stroke-width="2" stroke-miterlimit="10" pointer-events="all"/></g></g><g data-cell-id="532"><g><path d="M 760 730 L 760 706 L 696 706 L 696 392 C 703.8 392 703.8 380 696 380 L 696 380 L 696 341.5 L 696 339 L 696 327 C 703.8 327 703.8 315 696 315 L 696 315 L 696 268 C 703.8 268 703.8 256 696 256 L 696 256 L 696 254 L 640 254 L 640 241.24" fill="none" stroke="#db2777" stroke-width="2" stroke-miterlimit="10" pointer-events="stroke"/><path d="M 640 232.24 L 646 244.24 L 640 241.24 L 634 244.24 Z" fill="#db2777" stroke="#db2777" stroke-width="2" stroke-miterlimit="10" pointer-events="all"/></g><g><g fill="rgb(0, 0, 0)" font-family="&quot;Helvetica&quot;" text-anchor="middle" font-size="14px"><rect fill="rgb(255, 255, 255)" stroke="none" x="670" y="476" width="53" height="18" stroke-width="0"/><text x="695.5" y="489.5">explains</text></g></g></g><g data-cell-id="533"><g><path d="M 1040 730 L 1040 706 L 1026 706 L 1026 363 C 1033.8 363 1033.8 351 1026 351 L 1026 351 L 1026 339 L 1026 335.7 L 1026 327 C 1033.8 327 1033.8 315 1026 315 L 1026 315 L 1026 274 L 1068 274 C 1068 266.2 1080 266.2 1080 274 L 1080 274 L 1300 274 L 1300 261.24" fill="none" stroke="#db2777" stroke-width="2" stroke-miterlimit="10" pointer-events="stroke"/><path d="M 1300 252.24 L 1306 264.24 L 1300 261.24 L 1294 264.24 Z" fill="#db2777" stroke="#db2777" stroke-width="2" stroke-miterlimit="10" pointer-events="all"/></g></g></g></g></g><switch><g requiredFeatures="http://www.w3.org/TR/SVG11/feature#Extensibility"/><a transform="translate(0,-5)" xlink:href="https://www.drawio.com/doc/faq/svg-export-text-problems" target="_blank"><text text-anchor="middle" font-size="10px" x="50%" y="100%">Text is not SVG - cannot display</text></a></switch></svg>