<?plantuml 1.2026.2?><svg xmlns="http://www.w3.org/2000/svg" xmlns:xlink="http://www.w3.org/1999/xlink" contentStyleType="text/css" data-diagram-type="DESCRIPTION" height="731px" preserveAspectRatio="none" style="width:1966px;height:731px;background:#FFFFFF;" version="1.1" viewBox="0 0 1966 731" width="1966px" zoomAndPan="magnify"><title>Certifications Archive And Catalog Architecture</title><defs/><g><g class="title" data-source-line="2"><text fill="#000000" font-family="Monospace" font-size="14" font-weight="bold" lengthAdjust="spacing" textLength="326.0553" x="812.4723" y="24.9659">Certifications&#160;Archive&#160;And&#160;Catalog&#160;Architecture</text></g><!--cluster Canonical Catalog--><g class="cluster" data-qualified-name="Canonical Catalog" data-source-line="9" id="ent0003"><rect fill="#F8FAFC" height="210" rx="2.5" ry="2.5" style="stroke:#181818;stroke-width:1;" width="248" x="871" y="381.5679"/><text fill="#000000" font-family="Monospace" font-size="14" font-weight="bold" lengthAdjust="spacing" textLength="125.2155" x="932.3922" y="398.5339">Canonical&#160;Catalog</text></g><!--cluster Provider Drilldown Indexes--><g class="cluster" data-qualified-name="Provider Drilldown Indexes" data-source-line="14" id="ent0006"><rect fill="#EFF6FF" height="153" rx="2.5" ry="2.5" style="stroke:#181818;stroke-width:1;" width="208" x="1410" y="189.5679"/><text fill="#000000" font-family="Monospace" font-size="14" font-weight="bold" lengthAdjust="spacing" textLength="188.9993" x="1419.5003" y="206.5339">Provider&#160;Drilldown&#160;Indexes</text></g><!--cluster Evidence Archive Buckets--><g class="cluster" data-qualified-name="Evidence Archive Buckets" data-source-line="18" id="ent0008"><rect fill="#FFF7ED" height="152" rx="2.5" ry="2.5" style="stroke:#181818;stroke-width:1;" width="1213" x="14" y="190.0679"/><text fill="#000000" font-family="Monospace" font-size="14" font-weight="bold" lengthAdjust="spacing" textLength="175.5103" x="532.7448" y="207.0339">Evidence&#160;Archive&#160;Buckets</text></g><!--cluster External Proof Surface--><g class="cluster" data-qualified-name="External Proof Surface" data-source-line="27" id="ent0015"><rect fill="#F0FDF4" height="115" rx="2.5" ry="2.5" style="stroke:#181818;stroke-width:1;" width="248" x="871" y="610.5679"/><text fill="#000000" font-family="Monospace" font-size="14" font-weight="bold" lengthAdjust="spacing" textLength="155.4834" x="917.2583" y="627.5339">External&#160;Proof&#160;Surface</text></g><!--cluster Validation And Guidance--><g class="cluster" data-qualified-name="Validation And Guidance" data-source-line="31" id="ent0017"><rect fill="#FDF2F8" height="96" rx="2.5" ry="2.5" style="stroke:#181818;stroke-width:1;" width="625" x="1335" y="44.0679"/><text fill="#000000" font-family="Monospace" font-size="14" font-weight="bold" lengthAdjust="spacing" textLength="170.5929" x="1562.2036" y="61.0339">Validation&#160;And&#160;Guidance</text></g><!--entity curator--><g class="entity" data-qualified-name="curator" data-source-line="7" id="ent0002"><ellipse cx="816.9577" cy="72.0679" fill="#F1F1F1" rx="8" ry="8" style="stroke:#181818;stroke-width:0.5;"/><path d="M816.9577,80.0679 L816.9577,107.0679 M803.9577,88.0679 L829.9577,88.0679 M816.9577,107.0679 L803.9577,122.0679 M816.9577,107.0679 L829.9577,122.0679" fill="none" style="stroke:#181818;stroke-width:0.5;"/><text fill="#000000" font-family="Monospace" font-size="14" lengthAdjust="spacing" textLength="139.9155" x="747" y="138.5339">Contributor&#160;/&#160;Curator</text></g><!--entity root_index--><g class="entity" data-qualified-name="Canonical Catalog.root_index" data-source-line="10" id="ent0004"><path d="M879.5,414.0679 L879.5,467.2038 A2.5,2.5 0 0 0 882,469.7038 L1108.1472,469.7038 A2.5,2.5 0 0 0 1110.6472,467.2038 L1110.6472,421.5679 L1100.6472,411.5679 L882,411.5679 A2.5,2.5 0 0 0 879.5,414.0679" fill="#DBEAFE" style="stroke:#181818;stroke-width:0.5;"/><path d="M1100.6472,411.5679 L1100.6472,419.0679 A2.5,2.5 0 0 0 1103.1472,421.5679 L1110.6472,421.5679" fill="#DBEAFE" style="stroke:#181818;stroke-width:0.5;"/><text fill="#000000" font-family="Monospace" font-size="14" lengthAdjust="spacing" textLength="81.5917" x="889.5" y="436.5339">README.md</text><text fill="#000000" font-family="Monospace" font-size="14" lengthAdjust="spacing" textLength="211.1472" x="889.5" y="455.6018">master&#160;public&#160;certification&#160;index</text></g><!--entity entry_contract--><g class="entity" data-qualified-name="Canonical Catalog.entry_contract" data-source-line="11" id="ent0005"><rect fill="#E0F2FE" height="77.2038" rx="2.5" ry="2.5" style="stroke:#181818;stroke-width:0.5;" width="179.6554" x="905" y="506.5679"/><text fill="#000000" font-family="Monospace" font-size="14" lengthAdjust="spacing" textLength="92.4697" x="915" y="531.5339">entry&#160;contract</text><text fill="#000000" font-family="Monospace" font-size="14" lengthAdjust="spacing" textLength="159.6554" x="915" y="550.6018">course&#160;or&#160;platform&#160;page</text><text fill="#000000" font-family="Monospace" font-size="14" lengthAdjust="spacing" textLength="101.4016" x="915" y="569.6697">+&#160;live&#160;share&#160;link</text></g><!--entity provider_indexes--><g class="entity" data-qualified-name="Provider Drilldown Indexes.provider_indexes" data-source-line="15" id="ent0007"><path d="M1418,222.0679 L1418,332.4075 A2.5,2.5 0 0 0 1420.5,334.9075 L1607.4613,334.9075 A2.5,2.5 0 0 0 1609.9613,332.4075 L1609.9613,229.5679 L1599.9613,219.5679 L1420.5,219.5679 A2.5,2.5 0 0 0 1418,222.0679" fill="#E2E8F0" style="stroke:#181818;stroke-width:0.5;"/><path d="M1599.9613,219.5679 L1599.9613,227.0679 A2.5,2.5 0 0 0 1602.4613,229.5679 L1609.9613,229.5679" fill="#E2E8F0" style="stroke:#181818;stroke-width:0.5;"/><text fill="#000000" font-family="Monospace" font-size="14" lengthAdjust="spacing" textLength="146.7894" x="1428" y="244.5339">Coursera/README.md</text><text fill="#000000" font-family="Monospace" font-size="14" lengthAdjust="spacing" textLength="149.1274" x="1428" y="263.6018">Microsoft/README.md</text><text fill="#000000" font-family="Monospace" font-size="14" lengthAdjust="spacing" textLength="160.5234" x="1428" y="282.6697">TryHackMe/README.md</text><text fill="#000000" font-family="Monospace" font-size="14" lengthAdjust="spacing" textLength="171.9613" x="1428" y="301.7376">Recognitions/README.md</text><text fill="#000000" font-family="Monospace" font-size="14" lengthAdjust="spacing" textLength="169.7633" x="1428" y="320.8055">Weber_State/README.md</text></g><!--entity coursera--><g class="entity" data-qualified-name="Evidence Archive Buckets.coursera" data-source-line="19" id="ent0009"><path d="M475,229.5679 L516,229.5679 A3.75,3.75 0 0 1 518.5,232.0679 L525.5,250.5679 L640.6295,250.5679 A2.5,2.5 0 0 1 643.1295,253.0679 L643.1295,322.2717 A2.5,2.5 0 0 1 640.6295,324.7717 L475,324.7717 A2.5,2.5 0 0 1 472.5,322.2717 L472.5,232.0679 A2.5,2.5 0 0 1 475,229.5679" fill="#FED7AA" style="stroke:#181818;stroke-width:0.5;"/><line style="stroke:#181818;stroke-width:0.5;" x1="472.5" x2="525.5" y1="250.5679" y2="250.5679"/><text fill="#000000" font-family="Monospace" font-size="14" lengthAdjust="spacing" textLength="65.1978" x="482.5" y="272.5339">Coursera/</text><text fill="#000000" font-family="Monospace" font-size="14" lengthAdjust="spacing" textLength="140.6295" x="482.5" y="291.6018">institution&#160;subfolders</text><text fill="#000000" font-family="Monospace" font-size="14" lengthAdjust="spacing" textLength="135.2255" x="482.5" y="310.6697">local&#160;PDF&#160;certificates</text></g><!--entity microsoft--><g class="entity" data-qualified-name="Evidence Archive Buckets.microsoft" data-source-line="20" id="ent0010"><path d="M664,220.0679 L705,220.0679 A3.75,3.75 0 0 1 707.5,222.5679 L714.5,241.0679 L802.4276,241.0679 A2.5,2.5 0 0 1 804.9276,243.5679 L804.9276,331.8396 A2.5,2.5 0 0 1 802.4276,334.3396 L664,334.3396 A2.5,2.5 0 0 1 661.5,331.8396 L661.5,222.5679 A2.5,2.5 0 0 1 664,220.0679" fill="#FED7AA" style="stroke:#181818;stroke-width:0.5;"/><line style="stroke:#181818;stroke-width:0.5;" x1="661.5" x2="714.5" y1="241.0679" y2="241.0679"/><text fill="#000000" font-family="Monospace" font-size="14" lengthAdjust="spacing" textLength="67.5358" x="671.5" y="263.0339">Microsoft/</text><text fill="#000000" font-family="Monospace" font-size="14" lengthAdjust="spacing" textLength="106.5536" x="671.5" y="282.1018">Learning_Paths/</text><text fill="#000000" font-family="Monospace" font-size="14" lengthAdjust="spacing" textLength="61.8518" x="671.5" y="301.1697">Modules/</text><text fill="#000000" font-family="Monospace" font-size="14" lengthAdjust="spacing" textLength="113.4276" x="671.5" y="320.2376">local&#160;PDF&#160;exports</text></g><!--entity tryhackme--><g class="entity" data-qualified-name="Evidence Archive Buckets.tryhackme" data-source-line="21" id="ent0011"><path d="M825,220.0679 L866,220.0679 A3.75,3.75 0 0 1 868.5,222.5679 L875.5,241.0679 L982.7195,241.0679 A2.5,2.5 0 0 1 985.2195,243.5679 L985.2195,331.8396 A2.5,2.5 0 0 1 982.7195,334.3396 L825,334.3396 A2.5,2.5 0 0 1 822.5,331.8396 L822.5,222.5679 A2.5,2.5 0 0 1 825,220.0679" fill="#FED7AA" style="stroke:#181818;stroke-width:0.5;"/><line style="stroke:#181818;stroke-width:0.5;" x1="822.5" x2="875.5" y1="241.0679" y2="241.0679"/><text fill="#000000" font-family="Monospace" font-size="14" lengthAdjust="spacing" textLength="78.9317" x="832.5" y="263.0339">TryHackMe/</text><text fill="#000000" font-family="Monospace" font-size="14" lengthAdjust="spacing" textLength="91.8956" x="832.5" y="282.1018">Certifications/</text><text fill="#000000" font-family="Monospace" font-size="14" lengthAdjust="spacing" textLength="53.9838" x="832.5" y="301.1697">Badges/</text><text fill="#000000" font-family="Monospace" font-size="14" lengthAdjust="spacing" textLength="132.7195" x="832.5" y="320.2376">profile&#160;badge&#160;image</text></g><!--entity recognitions--><g class="entity" data-qualified-name="Evidence Archive Buckets.recognitions" data-source-line="22" id="ent0012"><path d="M1006,239.0679 L1047,239.0679 A3.75,3.75 0 0 1 1049.5,241.5679 L1056.5,260.0679 L1216.3313,260.0679 A2.5,2.5 0 0 1 1218.8313,262.5679 L1218.8313,312.7038 A2.5,2.5 0 0 1 1216.3313,315.2038 L1006,315.2038 A2.5,2.5 0 0 1 1003.5,312.7038 L1003.5,241.5679 A2.5,2.5 0 0 1 1006,239.0679" fill="#FED7AA" style="stroke:#181818;stroke-width:0.5;"/><line style="stroke:#181818;stroke-width:0.5;" x1="1003.5" x2="1056.5" y1="260.0679" y2="260.0679"/><text fill="#000000" font-family="Monospace" font-size="14" lengthAdjust="spacing" textLength="90.3696" x="1013.5" y="282.0339">Recognitions/</text><text fill="#000000" font-family="Monospace" font-size="14" lengthAdjust="spacing" textLength="185.3313" x="1013.5" y="301.1018">award&#160;and&#160;recognition&#160;PDFs</text></g><!--entity weber--><g class="entity" data-qualified-name="Evidence Archive Buckets.weber" data-source-line="23" id="ent0013"><path d="M25,239.0679 L66,239.0679 A3.75,3.75 0 0 1 68.5,241.5679 L75.5,260.0679 L207.4574,260.0679 A2.5,2.5 0 0 1 209.9574,262.5679 L209.9574,312.7038 A2.5,2.5 0 0 1 207.4574,315.2038 L25,315.2038 A2.5,2.5 0 0 1 22.5,312.7038 L22.5,241.5679 A2.5,2.5 0 0 1 25,239.0679" fill="#FED7AA" style="stroke:#181818;stroke-width:0.5;"/><line style="stroke:#181818;stroke-width:0.5;" x1="22.5" x2="75.5" y1="260.0679" y2="260.0679"/><text fill="#000000" font-family="Monospace" font-size="14" lengthAdjust="spacing" textLength="88.1717" x="32.5" y="282.0339">Weber_State/</text><text fill="#000000" font-family="Monospace" font-size="14" lengthAdjust="spacing" textLength="157.4574" x="32.5" y="301.1018">training&#160;credential&#160;PDFs</text></g><!--entity linkedin--><g class="entity" data-qualified-name="Evidence Archive Buckets.linkedin" data-source-line="24" id="ent0014"><path d="M230.5,239.0679 L271.5,239.0679 A3.75,3.75 0 0 1 274,241.5679 L281,260.0679 L451.0793,260.0679 A2.5,2.5 0 0 1 453.5793,262.5679 L453.5793,312.7038 A2.5,2.5 0 0 1 451.0793,315.2038 L230.5,315.2038 A2.5,2.5 0 0 1 228,312.7038 L228,241.5679 A2.5,2.5 0 0 1 230.5,239.0679" fill="#FED7AA" style="stroke:#181818;stroke-width:0.5;"/><line style="stroke:#181818;stroke-width:0.5;" x1="228" x2="281" y1="260.0679" y2="260.0679"/><text fill="#000000" font-family="Monospace" font-size="14" lengthAdjust="spacing" textLength="62.1877" x="238" y="282.0339">LinkedIn/</text><text fill="#000000" font-family="Monospace" font-size="14" lengthAdjust="spacing" textLength="195.5793" x="238" y="301.1018">standalone&#160;certificate&#160;exports</text></g><!--entity external_links--><g class="entity" data-qualified-name="External Proof Surface.external_links" data-source-line="28" id="ent0016"><rect fill="#DCFCE7" height="77.2038" rx="2.5" ry="2.5" style="stroke:#181818;stroke-width:0.5;" width="230.6712" x="879.5" y="640.5679"/><text fill="#000000" font-family="Monospace" font-size="14" lengthAdjust="spacing" textLength="130.9975" x="889.5" y="665.5339">public&#160;course&#160;pages</text><text fill="#000000" font-family="Monospace" font-size="14" lengthAdjust="spacing" textLength="210.6712" x="889.5" y="684.6018">public&#160;shareable&#160;certificate&#160;links</text><text fill="#000000" font-family="Monospace" font-size="14" lengthAdjust="spacing" textLength="137.4235" x="889.5" y="703.6697">platform&#160;profile&#160;links</text></g><!--entity ci--><g class="entity" data-qualified-name="Validation And Guidance.ci" data-source-line="32" id="ent0018"><rect fill="#FBCFE8" height="58.1358" rx="2.5" ry="2.5" style="stroke:#181818;stroke-width:0.5;" width="284.893" x="1343.5" y="74.0679"/><text fill="#000000" font-family="Monospace" font-size="14" lengthAdjust="spacing" textLength="162.6234" x="1353.5" y="99.0339">.github/workflows/ci.yml</text><text fill="#000000" font-family="Monospace" font-size="14" lengthAdjust="spacing" textLength="264.893" x="1353.5" y="118.1018">light&#160;markdown&#160;and&#160;structure&#160;validation</text></g><!--entity docs--><g class="entity" data-qualified-name="Validation And Guidance.docs" data-source-line="33" id="ent0019"><rect fill="#F9A8D4" height="58.1358" rx="2.5" ry="2.5" style="stroke:#181818;stroke-width:0.5;" width="305.1929" x="1646.5" y="74.0679"/><text fill="#000000" font-family="Monospace" font-size="14" lengthAdjust="spacing" textLength="285.1929" x="1656.5" y="99.0339">docs/contributor-architecture-blueprint.md</text><text fill="#000000" font-family="Monospace" font-size="14" lengthAdjust="spacing" textLength="212.3792" x="1656.5" y="118.1018">repo-architecture.{puml,drawio}</text></g><g class="link" data-entity-1="ent0002" data-entity-2="ent0009" data-link-type="dependency" id="lnk20"><polygon fill="#181818" points="602.6695,229.5494,611.9361,226.2131,606.2806,226.091,606.4027,220.4355,602.6695,229.5494" style="stroke:#181818;stroke-width:1;"/><path d="M746.9838,131.7197 C728.0411,140.1333 707.8512,149.9828 690,160.5679 C658.1762,179.4383 631.1598,202.2633 607.0028,225.3993" fill="none" style="stroke:#181818;stroke-width:1;"/><text fill="#000000" font-family="Monospace" font-size="13" lengthAdjust="spacing" textLength="80.8861" x="692" y="176.4649">add&#160;evidence</text></g><g class="link" data-entity-1="ent0002" data-entity-2="ent0010" data-link-type="dependency" id="lnk21"><polygon fill="#181818" points="758.5248,219.9837,765.9458,213.5085,760.6324,215.4496,758.6912,210.1363,758.5248,219.9837" style="stroke:#181818;stroke-width:1;"/><path d="M796.0823,142.8372 C792.9878,148.7514 789.8754,154.8038 787,160.5679 C777.4154,179.7813 769.8705,195.576 761.0539,214.5428" fill="none" style="stroke:#181818;stroke-width:1;"/><text fill="#000000" font-family="Monospace" font-size="13" lengthAdjust="spacing" textLength="80.8861" x="789" y="176.4649">add&#160;evidence</text></g><g class="link" data-entity-1="ent0002" data-entity-2="ent0011" data-link-type="dependency" id="lnk22"><polygon fill="#181818" points="893.7268,219.8261,895.3526,210.1123,892.4782,214.9845,887.606,212.1101,893.7268,219.8261" style="stroke:#181818;stroke-width:1;"/><path d="M858.5361,142.8604 C863.1793,148.4811 867.4909,154.4467 871,160.5679 C881.3719,178.6603 887.1779,194.4319 892.2284,214.0161" fill="none" style="stroke:#181818;stroke-width:1;"/><text fill="#000000" font-family="Monospace" font-size="13" lengthAdjust="spacing" textLength="80.8861" x="884" y="176.4649">add&#160;evidence</text></g><g class="link" data-entity-1="ent0002" data-entity-2="ent0012" data-link-type="dependency" id="lnk23"><polygon fill="#181818" points="1072.8991,238.9024,1068.9723,229.8702,1069.2151,235.5218,1063.5634,235.7646,1072.8991,238.9024" style="stroke:#181818;stroke-width:1;"/><path d="M887.3512,124.5619 C914.1129,133.7505 944.3216,145.8645 970,160.5679 C1007.8954,182.2668 1041.487,210.0779 1068.4783,234.8457" fill="none" style="stroke:#181818;stroke-width:1;"/><text fill="#000000" font-family="Monospace" font-size="13" lengthAdjust="spacing" textLength="80.8861" x="1002" y="176.4649">add&#160;evidence</text></g><g class="link" data-entity-1="ent0002" data-entity-2="ent0013" data-link-type="dependency" id="lnk24"><polygon fill="#181818" points="150.2686,239.0453,159.5367,235.7131,153.8812,235.5885,154.0058,229.933,150.2686,239.0453" style="stroke:#181818;stroke-width:1;"/><path d="M746.908,109.1184 C609.9325,119.7942 311.9942,147.2073 219,189.5679 C193.2869,201.2807 173.2052,217.0975 154.6037,234.8971" fill="none" style="stroke:#181818;stroke-width:1;"/><text fill="#000000" font-family="Monospace" font-size="13" lengthAdjust="spacing" textLength="80.8861" x="317" y="176.4649">add&#160;evidence</text></g><g class="link" data-entity-1="ent0002" data-entity-2="ent0014" data-link-type="dependency" id="lnk25"><polygon fill="#181818" points="384.9131,239.0167,394.4814,236.6828,388.8708,235.9611,389.5924,230.3504,384.9131,239.0167" style="stroke:#181818;stroke-width:1;"/><path d="M746.7743,112.6741 C673.333,123.5572 556.0273,146.3328 463,189.5679 C435.2163,202.4806 411.8744,218.2007 389.6623,235.35" fill="none" style="stroke:#181818;stroke-width:1;"/><text fill="#000000" font-family="Monospace" font-size="13" lengthAdjust="spacing" textLength="80.8861" x="539" y="176.4649">add&#160;evidence</text></g><g class="link" data-entity-1="ent0002" data-entity-2="ent0007" data-link-type="dependency" id="lnk26"><polygon fill="#181818" points="1454.1335,219.4193,1449.401,210.7819,1450.1571,216.388,1444.551,217.1441,1454.1335,219.4193" style="stroke:#181818;stroke-width:1;"/><path d="M887.0203,108.6184 C976.4784,115.3884 1135.6981,130.6603 1269,160.5679 C1298.2104,167.1216 1303.7503,175.1919 1333,181.5679 C1364.0266,188.3313 1374.6207,177.5159 1404,189.5679 C1421.6443,196.806 1434.0392,204.1011 1449.3619,215.7818" fill="none" style="stroke:#181818;stroke-width:1;"/><text fill="#000000" font-family="Monospace" font-size="13" lengthAdjust="spacing" textLength="154.7911" x="1335" y="176.4649">update&#160;drilldown&#160;indexes</text></g><g class="link" data-entity-1="ent0002" data-entity-2="ent0004" data-link-type="dependency" id="lnk27"><polygon fill="#181818" points="1110.6402,420.5897,1120.4126,421.8145,1115.4263,419.143,1118.0979,414.1567,1110.6402,420.5897" style="stroke:#181818;stroke-width:1;"/><path d="M887.1382,108.1622 C993.6702,116.0093 1188.4145,137.2889 1231,189.5679 C1252.4732,215.9289 1249.928,314.3238 1231,342.5679 C1203.7496,383.2306 1161.7973,405.1264 1116.3835,418.8537" fill="none" style="stroke:#181818;stroke-width:1;"/><text fill="#000000" font-family="Monospace" font-size="13" lengthAdjust="spacing" textLength="141.4011" x="1249" y="282.4649">update&#160;canonical&#160;index</text></g><g class="link" data-entity-1="ent0007" data-entity-2="ent0004" data-link-type="dependency" id="lnk28"><polygon fill="#181818" points="1110.6404,421.6293,1120.2116,423.9517,1115.5595,420.7333,1118.7779,416.0812,1110.6404,421.6293" style="stroke:#181818;stroke-width:1;"/><path d="M1421.9694,334.6328 C1415.9782,337.5002 1409.9583,340.1771 1404,342.5679 C1308.5043,380.8871 1200.0317,405.3459 1116.5433,420.5541" fill="none" style="stroke:#181818;stroke-width:1;"/><text fill="#000000" font-family="Monospace" font-size="13" lengthAdjust="spacing" textLength="130.8581" x="1374" y="368.4649">mirror&#160;provider&#160;slices</text></g><g class="link" data-entity-1="ent0004" data-entity-2="ent0005" data-link-type="dependency" id="lnk29"><polygon fill="#181818" points="995,506.4827,999,497.4827,995,501.4827,991,497.4827,995,506.4827" style="stroke:#181818;stroke-width:1;"/><path d="M995,469.5765 C995,480.9571 995,488.2776 995,500.4827" fill="none" style="stroke:#181818;stroke-width:1;"/></g><g class="link" data-entity-1="ent0005" data-entity-2="ent0016" data-link-type="dependency" id="lnk30"><polygon fill="#181818" points="995,640.2365,999,631.2365,995,635.2365,991,631.2365,995,640.2365" style="stroke:#181818;stroke-width:1;"/><path d="M995,583.8938 C995,601.5683 995,616.5613 995,634.2365" fill="none" style="stroke:#181818;stroke-width:1;"/></g><g class="link" data-entity-1="ent0009" data-entity-2="ent0004" data-link-type="dependency" id="lnk31"><polygon fill="#181818" points="879.4467,419.0713,871.5158,413.2317,874.5634,417.9975,869.7976,421.045,879.4467,419.0713" style="stroke:#181818;stroke-width:1;"/><path d="M621.4142,324.669 C631.4038,331.0973 641.8045,337.2929 652,342.5679 C723.4521,379.5365 804.9263,402.684 873.5867,417.7827" fill="none" style="stroke:#181818;stroke-width:1;stroke-dasharray:7,7;"/><text fill="#000000" font-family="Monospace" font-size="13" lengthAdjust="spacing" textLength="82.8101" x="716" y="368.4649">backs&#160;catalog</text></g><g class="link" data-entity-1="ent0010" data-entity-2="ent0004" data-link-type="dependency" id="lnk32"><polygon fill="#181818" points="926.5779,411.5076,920.0158,404.1633,922.0193,409.4535,916.7292,411.457,926.5779,411.5076" style="stroke:#181818;stroke-width:1;"/><path d="M802.3133,334.0864 C805.9225,336.9611 809.501,339.802 813,342.5679 C830.6445,356.516 833.7924,361.8656 853,373.5679 C876.1,387.6417 897.2244,398.2807 921.1076,409.0427" fill="none" style="stroke:#181818;stroke-width:1;stroke-dasharray:7,7;"/><text fill="#000000" font-family="Monospace" font-size="13" lengthAdjust="spacing" textLength="82.8101" x="855" y="368.4649">backs&#160;catalog</text></g><g class="link" data-entity-1="ent0011" data-entity-2="ent0004" data-link-type="dependency" id="lnk33"><polygon fill="#181818" points="976.7773,411.2559,975.37,401.5081,974.1146,407.0239,968.5988,405.7685,976.7773,411.2559" style="stroke:#181818;stroke-width:1;"/><path d="M932.5326,334.2422 C939.3835,347.2537 946.8047,360.9746 954,373.5679 C961.1604,386.1001 966.3024,394.6078 973.582,406.1775" fill="none" style="stroke:#181818;stroke-width:1;stroke-dasharray:7,7;"/><text fill="#000000" font-family="Monospace" font-size="13" lengthAdjust="spacing" textLength="82.8101" x="956" y="368.4649">backs&#160;catalog</text></g><g class="link" data-entity-1="ent0012" data-entity-2="ent0004" data-link-type="dependency" id="lnk34"><polygon fill="#181818" points="1015.1585,411.5024,1023.6577,406.526,1018.0754,407.4413,1017.1601,401.859,1015.1585,411.5024" style="stroke:#181818;stroke-width:1;"/><path d="M1084.3873,315.1193 C1063.3172,344.4539 1037.8392,379.9254 1018.6588,406.6291" fill="none" style="stroke:#181818;stroke-width:1;stroke-dasharray:7,7;"/><text fill="#000000" font-family="Monospace" font-size="13" lengthAdjust="spacing" textLength="82.8101" x="1059" y="368.4649">backs&#160;catalog</text></g><g class="link" data-entity-1="ent0013" data-entity-2="ent0004" data-link-type="dependency" id="lnk35"><polygon fill="#181818" points="879.1945,431.7052,870.5135,427.0533,874.2081,431.337,869.9244,435.0316,879.1945,431.7052" style="stroke:#181818;stroke-width:1;"/><path d="M166.2716,315.1868 C182.4056,325.5193 200.8209,335.7633 219,342.5679 C337.2539,386.8318 687.3314,417.5385 873.2108,431.2634" fill="none" style="stroke:#181818;stroke-width:1;stroke-dasharray:7,7;"/><text fill="#000000" font-family="Monospace" font-size="13" lengthAdjust="spacing" textLength="82.8101" x="347" y="368.4649">backs&#160;catalog</text></g><g class="link" data-entity-1="ent0014" data-entity-2="ent0004" data-link-type="dependency" id="lnk36"><polygon fill="#181818" points="879.3696,430.8293,870.8189,425.9421,874.3951,430.3251,870.0121,433.9013,879.3696,430.8293" style="stroke:#181818;stroke-width:1;"/><path d="M404.215,315.2271 C422.732,325.0762 443.3033,335.0478 463,342.5679 C600.5929,395.1002 763.3586,419.0696 873.4002,430.2242" fill="none" style="stroke:#181818;stroke-width:1;stroke-dasharray:7,7;"/><text fill="#000000" font-family="Monospace" font-size="13" lengthAdjust="spacing" textLength="82.8101" x="549" y="368.4649">backs&#160;catalog</text></g><g class="link" data-entity-1="ent0018" data-entity-2="ent0004" data-link-type="dependency" id="lnk37"><polygon fill="#181818" points="1110.7335,439.8776,1119.7916,443.7443,1115.7329,439.8038,1119.6735,435.7452,1110.7335,439.8776" style="stroke:#181818;stroke-width:1;"/><path d="M1558.7818,132.2399 C1583.3785,145.6729 1608.1076,164.4245 1622,189.5679 C1654.8857,249.0871 1663.1735,288.4501 1622,342.5679 C1561.8082,421.6831 1280.7918,437.367 1116.7328,439.789" fill="none" style="stroke:#181818;stroke-width:1;"/></g><g class="link" data-entity-1="ent0018" data-entity-2="ent0007" data-link-type="dependency" id="lnk38"><polygon fill="#181818" points="1504.7966,219.5328,1507.2986,210.007,1503.9932,214.5978,1499.4025,211.2924,1504.7966,219.5328" style="stroke:#181818;stroke-width:1;"/><path d="M1490.561,132.0855 C1494.4041,155.6931 1499.0594,184.2898 1503.8326,213.6108" fill="none" style="stroke:#181818;stroke-width:1;"/></g><g class="link" data-entity-1="ent0019" data-entity-2="ent0004" data-link-type="dependency" id="lnk39"><polygon fill="#181818" points="1110.6568,435.0223,1119.8384,438.5856,1115.651,434.7823,1119.4543,430.5948,1110.6568,435.0223" style="stroke:#181818;stroke-width:1;"/><path d="M1790.6226,132.1454 C1770.9735,191.9371 1715.4972,329.9386 1611,373.5679 C1523.3472,410.1644 1269.4103,427.3912 1116.6498,434.7342" fill="none" style="stroke:#181818;stroke-width:1;stroke-dasharray:7,7;"/><text fill="#000000" font-family="Monospace" font-size="13" lengthAdjust="spacing" textLength="50.466" x="1770" y="282.4649">explains</text></g><g class="link" data-entity-1="ent0019" data-entity-2="ent0007" data-link-type="dependency" id="lnk40"><polygon fill="#181818" points="1595.0827,219.4477,1604.7835,217.7463,1599.2323,216.6582,1600.3204,211.107,1595.0827,219.4477" style="stroke:#181818;stroke-width:1;"/><path d="M1740.7116,132.1517 C1723.5156,140.8601 1704.8069,150.7561 1688,160.5679 C1657.0007,178.6652 1628.935,196.6912 1600.0622,216.1003" fill="none" style="stroke:#181818;stroke-width:1;stroke-dasharray:7,7;"/><text fill="#000000" font-family="Monospace" font-size="13" lengthAdjust="spacing" textLength="50.466" x="1690" y="176.4649">explains</text></g><?plantuml-src XLLDRziu4BthLymwnswSe2WQRmyBEBQuBL0NGRDeBmQCaKJ9X2bI8AauHj7_tY5bIvGJn3Tf-FZcwytmhyPWLID8FEZMWQsvGuM94qvoM73ZH2boT48h2tEJRyKJXxagO84EfQuwc-EvQmrFx4we1WtMOBTOwBrG5PGeRNnIy19RwPXMxXlM75PQQTjW7cFeTuSLVtG72i8GEQfAyYJ1t6a3amNTDI9h_SyDB5g3z3K1j91ttqboP20iAgqe0tcAU09NRCRcR06_4e1Ia8V9ztI-NANJkbYh6gtZ1fesaoA7F2u025Nmv-37QEqsuHUkblVfdAN4rGSA4qu17Y3tSLBCQvNhrbWE56yZqPNQ-1mhlbRlGFgAKhaCfq-r2_JX-kPq7QxIM_QUNFoEydem-aaK5EdI22cfrWg--7YufGHJnZuo5YMu2FuDtaIPhaHkjDMbYut_cyDdSh7YiV4xptMbH111RF_9CsusZmvT10y9DCVekXfnIo6zJsViTfH2wY4gvxskxjjynvrFW35sbowx1BJqQGufh9LGblJPXfxODkiGTgsazdr-MBAeRxuUNXZ7sqITBk_cyuXugCDQVULeYBxQFA3RMZAiTD5Axhy6SlxSQECwtlfq-HNYePPhDPuaCjnZKGLUAbNeKUOD86egJM0c1MpfDat8I-PHGzOAzsWAG9fACnpuKBiO8wDzXIpkujehJlWAG6uuTSU9BkcEQU-Xhr1y9U7ouekY-vP6eA0vKpnkmgXcCg25web6edYcyLFUASrO2O-jAMatU4dSiYNx42GH3TffJhlvyZD5EZWQmr1X9iUHUEyUqy_XiVx1tatVCOHDCD60BzWYlHj5-GEbABgbu9VXVotzgIxC9Otgx3pCQINSjirkzjhiIgdtzYONqqCjILQYsZgeqUp23FicMcVQi4_XgNVJYLWG__s2fRCnUw5p8XoMuZL6I_awaorlZ50kpApXZHwTJtyrRIt_BWpkXVuT_7W-ylJFVBRyuDC-RbMullvt6AHFW4K1_3Z38ymm56-01ds_0Hf9zmrS9ymt0BtcpZ0Zq8kjzGdQfl2YAVebUpmQHpcy1lsDl7ztmW5fvvpynSrQ6EDVYDDcjoHYyXHX_9Nnsv2SFHK1CT8lfNXgsNHwvZ6Z1f2ikeSn6Tfs0JYqxW9mrBuBsAw55q1z6o_W4XgLSNrFblCs947iB-XeNqbQXD7nA-8uWVu0?></g></svg>
