<?plantuml 1.2026.2?><svg xmlns="http://www.w3.org/2000/svg" xmlns:xlink="http://www.w3.org/1999/xlink" contentStyleType="text/css" data-diagram-type="DESCRIPTION" height="298px" preserveAspectRatio="none" style="width:428px;height:298px;background:#FFFFFF;" version="1.1" viewBox="0 0 428 298" width="428px" zoomAndPan="magnify"><title>Certifications Shell Script Flow</title><defs/><g><g class="title" data-source-line="1"><text fill="#000000" font-family="Monospace" font-size="14" font-weight="bold" lengthAdjust="spacing" textLength="209.5687" x="102.4326" y="24.9659">Certifications&#160;Shell&#160;Script&#160;Flow</text></g><!--entity shell_scripts_run_tachometer_profile_sh--><g class="entity" data-qualified-name="shell_scripts_run_tachometer_profile_sh" data-source-line="7" id="ent0002"><rect fill="#DBEAFE" height="77.2038" rx="2.5" ry="2.5" style="stroke:#181818;stroke-width:0.5;" width="242.2912" x="7" y="144.0179"/><text fill="#000000" font-family="Monospace" font-size="14" lengthAdjust="spacing" textLength="222.2912" x="17" y="168.9839">scripts/run_tachometer_profile.sh</text><text fill="#000000" font-family="Monospace" font-size="14" lengthAdjust="spacing" textLength="119.3915" x="17" y="188.0518">0&#160;local&#160;shell&#160;edges</text><text fill="#000000" font-family="Monospace" font-size="14" lengthAdjust="spacing" textLength="101.7516" x="17" y="207.1197">3&#160;external&#160;tools</text></g><!--entity tool_run--><g class="entity" data-qualified-name="tool_run" data-source-line="8" id="ent0003"><path d="M344.1902,83.7206 C349.0618,74.5793 357.3648,72.9796 364.4251,81.1643 C370.2887,73.4004 378.6135,75.1383 382.0127,83.8025 C391.6023,84.5113 397.2916,89.2644 391.8044,99.4237 C397.0385,108.8702 393.5365,114.29 383.163,115.1728 C382.9246,127.8975 376.5931,132.8921 364.5997,126.7209 C353.693,131.7536 346.5306,130.2676 345.8302,116.5203 C336.1693,115.6856 332.3811,107.594 337.7339,99.5827 C332.6785,91.4557 335.0947,86.0877 344.1902,83.7206" fill="#FEF3C7" style="stroke:#181818;stroke-width:0.5;"/><text fill="#000000" font-family="Monospace" font-size="14" lengthAdjust="spacing" textLength="23.0859" x="350.98" y="104.0539">run</text></g><!--entity tool_summarize--><g class="entity" data-qualified-name="tool_summarize" data-source-line="9" id="ent0004"><path d="M320.0562,166.5582 C325.2505,158.938 330.4879,160.5117 334.9154,167.3463 C338.5319,160.1952 344.2394,160.4295 348.3202,166.8889 C353.1542,159.4254 357.9209,158.1554 364.1259,165.4173 C368.1867,158.0497 375.2865,158.3157 378.9106,165.8507 C383.4951,158.9913 390.3865,159.2684 393.6024,167.2093 C397.2389,161.3947 403.939,160.8323 407.1017,167.7131 C416.4694,167.7838 420.5794,175.6006 415.4893,183.4012 C421.4339,192.0143 417.7613,198.0168 408.1664,199.6089 C404.3844,207.4605 396.7945,207.3684 391.8762,200.9018 C388.5699,209.0189 383.2883,208.5099 378.0295,202.8665 C375.2374,210.2474 368.3539,209.7345 364.2946,204.2159 C359.4656,209.7927 354.4955,210.7718 350.1581,203.6679 C344.6002,209.3358 338.2788,208.6447 335.1819,200.9165 C330.992,208.6363 324.5019,208.6764 320.6276,200.6253 C310.0676,199.7699 308.1351,190.4676 313.5771,183.1545 C308.2633,175.9706 309.3292,167.4798 320.0562,166.5582" fill="#FEF3C7" style="stroke:#181818;stroke-width:0.5;"/><text fill="#000000" font-family="Monospace" font-size="14" lengthAdjust="spacing" textLength="73.2617" x="325.89" y="188.0539">summarize</text></g><!--entity tool_tachometer--><g class="entity" data-qualified-name="tool_tachometer" data-source-line="10" id="ent0005"><path d="M318.8672,250.5407 C321.6407,245.4674 326.196,245.8275 328.9274,250.5838 C333.0084,244.3592 338.3557,245.7847 341.8126,251.2706 C345.1305,245.7844 348.3863,245.3578 352.1278,250.8735 C355.0186,243.9695 359.5721,243.9311 364.3058,248.9988 C368.1208,243.7614 372.5124,245.8605 374.7933,250.6099 C377.9261,245.4805 381.9549,245.266 385.476,250.1974 C389.3174,244.356 394.2207,245.4784 397.2876,251.0023 C400.356,245.2988 404.9969,246.5977 407.9723,251.0997 C416.2008,254.911 416.8821,261.9247 409.7196,267.3871 C417.74,272.3506 417.221,278.0323 409.8884,283.1601 C406.7061,288.562 402.4187,289.3027 398.4912,283.9498 C395.8329,290.6154 390.7721,290.8738 386.258,285.9002 C382.2925,291.2838 378.9746,290.5477 375.2571,285.6352 C372.8491,291.3225 367.5853,291.4648 364.5816,286.2166 C361.1725,290.9532 356.075,291.3701 352.9593,285.8832 C348.9347,289.6621 344.2251,289.9421 342.0926,283.809 C339.093,290.8278 332.9563,290.0666 328.9172,284.9363 C325.3731,289.4139 319.747,289.0496 317.3947,283.5587 C308.5879,282.4097 305.6325,274.1643 310.5087,267.2411 C305.7921,257.8382 307.2116,251.7494 318.8672,250.5407" fill="#FEF3C7" style="stroke:#181818;stroke-width:0.5;"/><text fill="#000000" font-family="Monospace" font-size="14" lengthAdjust="spacing" textLength="76.4677" x="324.29" y="272.0539">tachometer</text></g><g class="entity" data-qualified-name="shellGraphSummary" data-source-line="15" id="ent0009"><path d="M31.23,46.0679 L31.23,109.186 L225.0651,109.186 L225.0651,56.0679 L215.0651,46.0679 L31.23,46.0679" fill="#FEFFDD" style="stroke:#181818;stroke-width:0.5;"/><path d="M215.0651,46.0679 L215.0651,56.0679 L225.0651,56.0679 L215.0651,46.0679" fill="#FEFFDD" style="stroke:#181818;stroke-width:1;"/><text fill="#000000" font-family="Monospace" font-size="13" lengthAdjust="spacing" textLength="135.3041" x="37.23" y="64.9649">Scanned&#160;1&#160;shell&#160;script.</text><text fill="#000000" font-family="Monospace" font-size="13" lengthAdjust="spacing" textLength="172.8351" x="37.23" y="82.6709">Detected&#160;0&#160;local&#160;shell&#160;edges.</text><text fill="#000000" font-family="Monospace" font-size="13" lengthAdjust="spacing" textLength="156.4551" x="37.23" y="100.377">Detected&#160;3&#160;external&#160;tools.</text></g><!--link shell_scripts_run_tachometer_profile_sh to tool_run--><g class="link" data-entity-1="ent0002" data-entity-2="ent0003" data-link-type="dependency" data-source-line="11" id="lnk6"><path d="M236.76,143.5879 C236.76,129.1179 236.76,116.1679 236.76,116.1679 C236.76,116.1679 292.59,116.1679 329.55,116.1679" fill="none" id="shell_scripts_run_tachometer_profile_sh-to-tool_run" style="stroke:#181818;stroke-width:1;"/><polygon fill="#181818" points="335.55,116.1679,326.55,112.1679,330.55,116.1679,326.55,120.1679,335.55,116.1679" style="stroke:#181818;stroke-width:1;"/></g><!--link shell_scripts_run_tachometer_profile_sh to tool_summarize--><g class="link" data-entity-1="ent0002" data-entity-2="ent0004" data-link-type="dependency" data-source-line="12" id="lnk7"><path d="M249.45,182.6279 C271.01,182.6279 286.38,182.6279 304.65,182.6279" fill="none" id="shell_scripts_run_tachometer_profile_sh-to-tool_summarize" style="stroke:#181818;stroke-width:1;"/><polygon fill="#181818" points="310.65,182.6279,301.65,178.6279,305.65,182.6279,301.65,186.6279,310.65,182.6279" style="stroke:#181818;stroke-width:1;"/></g><!--link shell_scripts_run_tachometer_profile_sh to tool_tachometer--><g class="link" data-entity-1="ent0002" data-entity-2="ent0005" data-link-type="dependency" data-source-line="13" id="lnk8"><path d="M249.58,214.1879 C306.82,214.1879 362.76,214.1879 362.76,214.1879 C362.76,214.1879 362.76,222.1279 362.76,235.6379" fill="none" id="shell_scripts_run_tachometer_profile_sh-to-tool_tachometer" style="stroke:#181818;stroke-width:1;"/><polygon fill="#181818" points="362.76,241.6379,366.76,232.6379,362.76,236.6379,358.76,232.6379,362.76,241.6379" style="stroke:#181818;stroke-width:1;"/></g><?plantuml-src bP51Ry8m38Nl-HKMd66REEmsQGEwqtRf5QcoKfT4I-qgSSNOhryBhAqGXt7r-zxpIwnU0y6QelhAMrGld21t50BaDlf68GjoC84g1HM8VkyKIX_9zgX9NvuRZ5X3SbZAmVCUAWo99af95RP1Cs7zn9hWGrXIWtRAMAaROMBDzTZrwUEHzs6A1C-anuP0eZen0mApT2gQ7cBBXQ9rKfDIB9eebG-qJ6x7Zn34OkXQzY-ZSazfnokWxmxaRguY8Sq0qvaeBf75xSWYEPXlthQlsTRO86q9imuysVkWtWNpR9kjriz_Uchh6gF_eP4QHjVik724nzb0_xVfOl4orBhVDBIytphAXaLf-DttY8tBJxb7arjafXAUBhSvvo_DflDPxOGRfvkerpTS6k8I-dM_?></g></svg>
