<?plantuml 1.2026.2?><svg xmlns="http://www.w3.org/2000/svg" xmlns:xlink="http://www.w3.org/1999/xlink" contentStyleType="text/css" data-diagram-type="DESCRIPTION" height="275px" preserveAspectRatio="none" style="width:521px;height:275px;background:#FFFFFF;" version="1.1" viewBox="0 0 521 275" width="521px" zoomAndPan="magnify"><title>Certifications Tooling Integrations</title><defs/><g><g class="title" data-source-line="1"><text fill="#000000" font-family="Monospace" font-size="14" font-weight="bold" lengthAdjust="spacing" textLength="238.7027" x="134.3202" y="24.9659">Certifications&#160;Tooling&#160;Integrations</text></g><!--entity source_github_workflows_ci_yml--><g class="entity" data-qualified-name="source_github_workflows_ci_yml" data-source-line="7" id="ent0002"><rect fill="#E0F2FE" height="39.0679" rx="2.5" ry="2.5" style="stroke:#181818;stroke-width:0.5;" width="301.8189" x="7" y="134.5146"/><text fill="#000000" font-family="Monospace" font-size="14" lengthAdjust="spacing" textLength="281.8189" x="17" y="159.4805">.github/workflows/ci.yml\n3&#160;detected&#160;tools</text></g><!--entity tool_actions_checkout--><g class="entity" data-qualified-name="tool_actions_checkout" data-source-line="8" id="ent0003"><path d="M378.2521,53.8803 C382.1039,47.7213 386.8465,47.8618 390.576,54.0028 C393.8817,47.2399 398.8834,48.4888 402.922,53.2153 C407.5423,46.0679 411.8029,46.1928 416.4439,53.1956 C420.7187,46.9122 424.5513,47.9002 428.6473,53.3812 C431.9788,48.6952 437.1924,48.8489 439.9726,54.0149 C442.6708,48.3572 448.9373,47.8653 452.5145,52.9928 C456.5941,46.9554 461.8919,47.015 466.265,52.6469 C471.4396,47.2114 476.2012,47.7115 479.0516,54.9852 C482.0226,48.8612 487.5029,48.9453 490.5415,54.921 C494.5103,49.0874 498.8944,49.8445 502.9044,54.874 C512.5857,57.2837 513.8959,63.4434 508.8982,71.2317 C514.3431,79.6889 512.878,84.7921 502.9347,87.6652 C500.6871,93.3365 495.3273,93.8078 492.1514,88.584 C488.5644,95.0942 482.4023,95.6835 477.8111,89.7403 C475.0776,95.6427 471.1071,97.2581 465.8771,92.5475 C462.5962,99.0514 458.1001,98.8755 454.0201,93.334 C451.4917,100.7731 444.9743,101.2401 440.966,94.7178 C436.0627,101.1156 430.6036,99.0399 428.1165,92.3462 C424.1806,99.1242 418.2589,98.9687 414.6881,91.9898 C410.1534,97.5081 405.4651,96.0295 402.7915,90.0621 C398.9143,95.1797 393.5553,94.8018 391.0114,88.6665 C386.5505,94.1295 380.3286,94.8653 377.0671,87.3753 C369.9691,83.3238 368.5677,75.3409 377.1487,71.3694 C368.9064,65.3412 369.8535,58.8586 378.2521,53.8803" fill="#FEF3C7" style="stroke:#181818;stroke-width:0.5;"/><text fill="#000000" font-family="Monospace" font-size="14" lengthAdjust="spacing" textLength="111.9156" x="383.82" y="75.4805">actions/checkout</text></g><!--entity tool_find--><g class="entity" data-qualified-name="tool_find" data-source-line="9" id="ent0004"><path d="M421.5942,138.838 C425.5604,129.5722 434.8196,127.9017 440.4351,137.1605 C447.5754,127.9028 455.3818,128.5993 460.2212,139.4271 C470.5144,140.7556 471.217,147.1622 467.0161,154.8687 C473.1952,162.9038 471.1472,170.1191 460.755,172.1507 C459.5482,183.1899 450.2816,186.5039 441.9254,179.6919 C431.4341,186.8872 424.8473,183.182 421.5364,171.8079 C413.0549,168.8765 412.4564,160.7267 419.2138,155.6101 C411.1135,150.1015 412.9034,141.9635 421.5942,138.838" fill="#FEF3C7" style="stroke:#181818;stroke-width:0.5;"/><text fill="#000000" font-family="Monospace" font-size="14" lengthAdjust="spacing" textLength="25.6899" x="426.93" y="159.4805">find</text></g><!--entity tool_wc--><g class="entity" data-qualified-name="tool_wc" data-source-line="10" id="ent0005"><path d="M425.7262,222.1497 C430.0858,215.8462 434.4031,213.5936 439.9365,220.9265 C445.9908,212.9793 452.1186,216.078 455.9809,223.2523 C465.2437,224.6266 469.0059,230.0442 463.5374,238.6486 C470.5795,246.7504 467.4928,253.5372 457.3122,255.1363 C456.918,265.9726 448.9199,268.393 441.0378,262.3601 C432.6469,267.4108 425.7853,266.1747 424.0417,255.2764 C415.4902,253.0383 412.5312,246.2177 418.4353,239.0003 C413.0114,229.9208 416.1003,224.7175 425.7262,222.1497" fill="#FEF3C7" style="stroke:#181818;stroke-width:0.5;"/><text fill="#000000" font-family="Monospace" font-size="14" lengthAdjust="spacing" textLength="17.7239" x="430.91" y="243.4805">wc</text></g><g class="entity" data-qualified-name="toolingGraphSummary" data-source-line="15" id="ent0009"><path d="M57.27,54.3446 L57.27,99.7566 L258.5542,99.7566 L258.5542,64.3446 L248.5542,54.3446 L57.27,54.3446" fill="#FEFFDD" style="stroke:#181818;stroke-width:0.5;"/><path d="M248.5542,54.3446 L248.5542,64.3446 L258.5542,64.3446 L248.5542,54.3446" fill="#FEFFDD" style="stroke:#181818;stroke-width:1;"/><text fill="#000000" font-family="Monospace" font-size="13" lengthAdjust="spacing" textLength="180.2842" x="63.27" y="73.2416">Scanned&#160;1&#160;tooling&#160;entrypoint.</text><text fill="#000000" font-family="Monospace" font-size="13" lengthAdjust="spacing" textLength="171.7822" x="63.27" y="90.9476">Detected&#160;3&#160;third-party&#160;tools.</text></g><!--link source_github_workflows_ci_yml to tool_actions_checkout--><g class="link" data-entity-1="ent0002" data-entity-2="ent0003" data-link-type="dependency" data-source-line="11" id="lnk6"><path d="M309.3,147.5346 C353.77,147.5346 390.73,147.5346 390.73,147.5346 C390.73,147.5346 390.73,123.6446 390.73,100.9946" fill="none" id="source_github_workflows_ci_yml-to-tool_actions_checkout" style="stroke:#181818;stroke-width:1;"/><polygon fill="#181818" points="390.73,94.9946,386.73,103.9946,390.73,99.9946,394.73,103.9946,390.73,94.9946" style="stroke:#181818;stroke-width:1;"/></g><!--link source_github_workflows_ci_yml to tool_find--><g class="link" data-entity-1="ent0002" data-entity-2="ent0004" data-link-type="dependency" data-source-line="12" id="lnk7"><path d="M309.16,160.5646 C348.6,160.5646 380.96,160.5646 405.79,160.5646" fill="none" id="source_github_workflows_ci_yml-to-tool_find" style="stroke:#181818;stroke-width:1;"/><polygon fill="#181818" points="411.79,160.5646,402.79,156.5646,406.79,160.5646,402.79,164.5646,411.79,160.5646" style="stroke:#181818;stroke-width:1;"/></g><!--link source_github_workflows_ci_yml to tool_wc--><g class="link" data-entity-1="ent0002" data-entity-2="ent0005" data-link-type="dependency" data-source-line="13" id="lnk8"><path d="M157.73,173.9546 C157.73,198.7946 157.73,238.0546 157.73,238.0546 C157.73,238.0546 341.52,238.0546 409.73,238.0546" fill="none" id="source_github_workflows_ci_yml-to-tool_wc" style="stroke:#181818;stroke-width:1;"/><polygon fill="#181818" points="415.73,238.0546,406.73,234.0546,410.73,238.0546,406.73,242.0546,415.73,238.0546" style="stroke:#181818;stroke-width:1;"/></g><?plantuml-src ZL4zJyCm4DtzAqxjtF3HWOsbD8W1bZ9MYenpYQqwTv5zKPH_ZzsIja98TBJVXv_V4oSUOOD1NEEC5iSKuPFPEshXZGJRSBfK7Xi1OGYkjGAr2sWoeEB1KQ-3xY1QNVEOXOts4Q-G6XizU2cPv4Dt2EzC77jjhZc6kvu9INOofKZPNbFhhoaf5ChK8t0Go-fCWKNHEh73rzt8uT1u7kETSSNK-VsUrkbrIKoiKthsSG4wGkGX6AnEgkgigeohaWgMs_loiTmgutceOQ6FFqsU5is11pbQPBFg1wbc19RbjbnldcPbuwY-iFFfDsCq5tmqP_IVWAlLyzy1RXRcB3UJHwE81UUWQUBNe7kx6xfEXqdjZ2PA_JxCAAGPmzIp8odKorp_6iIwKA_Ic3ATnYWKfagozpS0?></g></svg>