<?plantuml 1.2026.2?><svg xmlns="http://www.w3.org/2000/svg" xmlns:xlink="http://www.w3.org/1999/xlink" contentStyleType="text/css" data-diagram-type="DESCRIPTION" height="529px" preserveAspectRatio="none" style="width:461px;height:529px;background:#FFFFFF;" version="1.1" viewBox="0 0 461 529" width="461px" zoomAndPan="magnify"><title>Certifications Tooling Integrations</title><defs/><g><g class="title" data-source-line="1"><text fill="#000000" font-family="Monospace" font-size="14" font-weight="bold" lengthAdjust="spacing" textLength="238.7027" x="104.5552" y="24.9659">Certifications&#160;Tooling&#160;Integrations</text></g><!--entity source_github_workflows_ci_yml--><g class="entity" data-qualified-name="source_github_workflows_ci_yml" data-source-line="7" id="ent0002"><rect fill="#E0F2FE" height="58.1358" rx="2.5" ry="2.5" style="stroke:#181818;stroke-width:0.5;" width="182.6234" x="36.83" y="378.7079"/><text fill="#000000" font-family="Monospace" font-size="14" lengthAdjust="spacing" textLength="162.6234" x="46.83" y="403.6739">.github/workflows/ci.yml</text><text fill="#000000" font-family="Monospace" font-size="14" lengthAdjust="spacing" textLength="105.3356" x="46.83" y="422.7418">3&#160;detected&#160;tools</text></g><!--entity source_scripts_run_tachometer_profile_sh--><g class="entity" data-qualified-name="source_scripts_run_tachometer_profile_sh" data-source-line="8" id="ent0003"><rect fill="#E0F2FE" height="58.1358" rx="2.5" ry="2.5" style="stroke:#181818;stroke-width:0.5;" width="242.2912" x="7" y="126.7079"/><text fill="#000000" font-family="Monospace" font-size="14" lengthAdjust="spacing" textLength="222.2912" x="17" y="151.6739">scripts/run_tachometer_profile.sh</text><text fill="#000000" font-family="Monospace" font-size="14" lengthAdjust="spacing" textLength="105.3356" x="17" y="170.7418">3&#160;detected&#160;tools</text></g><!--entity tool_actions_checkout--><g class="entity" data-qualified-name="tool_actions_checkout" data-source-line="9" id="ent0004"><path d="M318.7221,307.6036 C322.5739,301.4446 327.3165,301.5851 331.046,307.7262 C334.3517,300.9632 339.3534,302.2122 343.392,306.9387 C348.0123,299.7913 352.2729,299.9161 356.9139,306.919 C361.1887,300.6356 365.0213,301.6236 369.1173,307.1045 C372.4488,302.4186 377.6624,302.5722 380.4426,307.7382 C383.1408,302.0805 389.4073,301.5886 392.9845,306.7161 C397.0641,300.6788 402.3619,300.7384 406.735,306.3702 C411.9096,300.9347 416.6712,301.4348 419.5216,308.7085 C422.4926,302.5845 427.9729,302.6686 431.0115,308.6443 C434.9803,302.8108 439.3644,303.5678 443.3744,308.5974 C453.0557,311.007 454.3659,317.1667 449.3682,324.955 C454.8131,333.4122 453.348,338.5155 443.4047,341.3885 C441.1571,347.0599 435.7973,347.5312 432.6214,342.3073 C429.0344,348.8175 422.8723,349.4068 418.2811,343.4636 C415.5476,349.3661 411.5771,350.9815 406.3471,346.2708 C403.0662,352.7747 398.5701,352.5988 394.4901,347.0573 C391.9617,354.4965 385.4443,354.9634 381.436,348.4411 C376.5327,354.8389 371.0736,352.7632 368.5865,346.0695 C364.6506,352.8475 358.7289,352.6921 355.1581,345.7131 C350.6234,351.2315 345.9351,349.7529 343.2615,343.7855 C339.3843,348.903 334.0253,348.5251 331.4814,342.3898 C327.0205,347.8529 320.7986,348.5887 317.5371,341.0986 C310.4391,337.0471 309.0377,329.0642 317.6187,325.0927 C309.3764,319.0645 310.3235,312.5819 318.7221,307.6036" fill="#FEF3C7" style="stroke:#181818;stroke-width:0.5;"/><text fill="#000000" font-family="Monospace" font-size="14" lengthAdjust="spacing" textLength="111.9156" x="324.29" y="329.2039">actions/checkout</text></g><!--entity tool_find--><g class="entity" data-qualified-name="tool_find" data-source-line="10" id="ent0005"><path d="M362.0642,392.5613 C366.0304,383.2955 375.2896,381.6251 380.9051,390.8838 C388.0454,381.6261 395.8518,382.3226 400.6912,393.1504 C410.9844,394.479 411.687,400.8855 407.4861,408.592 C413.6652,416.6271 411.6172,423.8425 401.225,425.874 C400.0182,436.9132 390.7516,440.2273 382.3954,433.4153 C371.9041,440.6106 365.3173,436.9053 362.0064,425.5312 C353.5249,422.5998 352.9264,414.45 359.6838,409.3335 C351.5835,403.8248 353.3734,395.6869 362.0642,392.5613" fill="#FEF3C7" style="stroke:#181818;stroke-width:0.5;"/><text fill="#000000" font-family="Monospace" font-size="14" lengthAdjust="spacing" textLength="25.6899" x="367.4" y="413.2039">find</text></g><!--entity tool_run--><g class="entity" data-qualified-name="tool_run" data-source-line="11" id="ent0006"><path d="M361.9202,56.8706 C366.7918,47.7293 375.0948,46.1296 382.1551,54.3143 C388.0187,46.5504 396.3435,48.2883 399.7427,56.9525 C409.3323,57.6613 415.0216,62.4144 409.5344,72.5737 C414.7685,82.0202 411.2665,87.44 400.893,88.3228 C400.6546,101.0475 394.3231,106.0421 382.3297,99.8709 C371.423,104.9036 364.2606,103.4176 363.5602,89.6703 C353.8993,88.8356 350.1111,80.744 355.4639,72.7327 C350.4085,64.6057 352.8247,59.2377 361.9202,56.8706" fill="#FEF3C7" style="stroke:#181818;stroke-width:0.5;"/><text fill="#000000" font-family="Monospace" font-size="14" lengthAdjust="spacing" textLength="23.0859" x="368.71" y="77.2039">run</text></g><!--entity tool_summarize--><g class="entity" data-qualified-name="tool_summarize" data-source-line="12" id="ent0007"><path d="M337.7862,139.7082 C342.9805,132.088 348.2179,133.6617 352.6454,140.4963 C356.2619,133.3452 361.9694,133.5795 366.0502,140.0389 C370.8842,132.5754 375.6509,131.3054 381.8559,138.5673 C385.9167,131.1997 393.0165,131.4657 396.6406,139.0007 C401.2251,132.1413 408.1165,132.4184 411.3324,140.3593 C414.9689,134.5447 421.669,133.9823 424.8317,140.8631 C434.1994,140.9338 438.3094,148.7506 433.2193,156.5512 C439.1639,165.1643 435.4913,171.1668 425.8964,172.7589 C422.1144,180.6105 414.5245,180.5184 409.6062,174.0518 C406.2999,182.1689 401.0183,181.6599 395.7595,176.0165 C392.9674,183.3974 386.0839,182.8845 382.0246,177.3659 C377.1956,182.9427 372.2255,183.9218 367.8881,176.8179 C362.3302,182.4858 356.0088,181.7947 352.9119,174.0665 C348.722,181.7863 342.2319,181.8264 338.3576,173.7753 C327.7976,172.9199 325.8651,163.6176 331.3071,156.3045 C325.9933,149.1206 327.0592,140.6298 337.7862,139.7082" fill="#FEF3C7" style="stroke:#181818;stroke-width:0.5;"/><text fill="#000000" font-family="Monospace" font-size="14" lengthAdjust="spacing" textLength="73.2617" x="343.62" y="161.2039">summarize</text></g><!--entity tool_tachometer--><g class="entity" data-qualified-name="tool_tachometer" data-source-line="13" id="ent0008"><path d="M336.5972,223.6907 C339.3707,218.6174 343.926,218.9775 346.6574,223.7338 C350.7384,217.5092 356.0857,218.9347 359.5426,224.4206 C362.8605,218.9344 366.1163,218.5078 369.8578,224.0235 C372.7486,217.1195 377.3021,217.0811 382.0358,222.1488 C385.8508,216.9114 390.2424,219.0105 392.5233,223.7599 C395.6561,218.6305 399.6849,218.416 403.206,223.3474 C407.0474,217.506 411.9507,218.6284 415.0176,224.1523 C418.086,218.4488 422.7269,219.7477 425.7023,224.2497 C433.9308,228.061 434.6121,235.0747 427.4496,240.5371 C435.47,245.5006 434.951,251.1823 427.6184,256.3101 C424.4361,261.712 420.1487,262.4527 416.2212,257.0998 C413.5629,263.7654 408.5021,264.0238 403.988,259.0502 C400.0225,264.4338 396.7046,263.6977 392.9871,258.7852 C390.5791,264.4725 385.3153,264.6148 382.3116,259.3666 C378.9025,264.1032 373.805,264.5201 370.6893,259.0332 C366.6647,262.8121 361.9551,263.0921 359.8226,256.959 C356.823,263.9778 350.6863,263.2166 346.6472,258.0863 C343.1031,262.5639 337.477,262.1996 335.1247,256.7087 C326.3179,255.5597 323.3625,247.3143 328.2387,240.3911 C323.5221,230.9882 324.9416,224.8994 336.5972,223.6907" fill="#FEF3C7" style="stroke:#181818;stroke-width:0.5;"/><text fill="#000000" font-family="Monospace" font-size="14" lengthAdjust="spacing" textLength="76.4677" x="342.02" y="245.2039">tachometer</text></g><!--entity tool_wc--><g class="entity" data-qualified-name="tool_wc" data-source-line="14" id="ent0009"><path d="M366.2062,475.873 C370.5658,469.5695 374.8831,467.3169 380.4165,474.6498 C386.4708,466.7027 392.5986,469.8013 396.4609,476.9757 C405.7237,478.35 409.4859,483.7675 404.0174,492.372 C411.0595,500.4738 407.9728,507.2605 397.7922,508.8596 C397.398,519.696 389.3999,522.1164 381.5178,516.0834 C373.1269,521.1341 366.2653,519.898 364.5217,508.9997 C355.9702,506.7616 353.0112,499.941 358.9153,492.7237 C353.4914,483.6441 356.5803,478.4409 366.2062,475.873" fill="#FEF3C7" style="stroke:#181818;stroke-width:0.5;"/><text fill="#000000" font-family="Monospace" font-size="14" lengthAdjust="spacing" textLength="17.7239" x="371.39" y="497.2039">wc</text></g><g class="entity" data-qualified-name="toolingGraphSummary" data-source-line="22" id="ent0016"><path d="M24.39,46.0679 L24.39,91.4799 L231.9012,91.4799 L231.9012,56.0679 L221.9012,46.0679 L24.39,46.0679" fill="#FEFFDD" style="stroke:#181818;stroke-width:0.5;"/><path d="M221.9012,46.0679 L221.9012,56.0679 L231.9012,56.0679 L221.9012,46.0679" fill="#FEFFDD" style="stroke:#181818;stroke-width:1;"/><text fill="#000000" font-family="Monospace" font-size="13" lengthAdjust="spacing" textLength="186.5112" x="30.39" y="64.9649">Scanned&#160;2&#160;tooling&#160;entrypoints.</text><text fill="#000000" font-family="Monospace" font-size="13" lengthAdjust="spacing" textLength="171.7822" x="30.39" y="82.6709">Detected&#160;6&#160;third-party&#160;tools.</text></g><!--link source_github_workflows_ci_yml to tool_actions_checkout--><g class="link" data-entity-1="ent0002" data-entity-2="ent0004" data-link-type="dependency" data-source-line="15" id="lnk10"><path d="M219.87,399.5979 C273.69,399.5979 331.21,399.5979 331.21,399.5979 C331.21,399.5979 331.21,376.7179 331.21,354.5979" fill="none" id="source_github_workflows_ci_yml-to-tool_actions_checkout" style="stroke:#181818;stroke-width:1;"/><polygon fill="#181818" points="331.21,348.5979,327.21,357.5979,331.21,353.5979,335.21,357.5979,331.21,348.5979" style="stroke:#181818;stroke-width:1;"/></g><!--link source_github_workflows_ci_yml to tool_find--><g class="link" data-entity-1="ent0002" data-entity-2="ent0005" data-link-type="dependency" data-source-line="16" id="lnk11"><path d="M219.87,415.9479 C266.61,415.9479 314.17,415.9479 346.05,415.9479" fill="none" id="source_github_workflows_ci_yml-to-tool_find" style="stroke:#181818;stroke-width:1;"/><polygon fill="#181818" points="352.05,415.9479,343.05,411.9479,347.05,415.9479,343.05,419.9479,352.05,415.9479" style="stroke:#181818;stroke-width:1;"/></g><!--link source_github_workflows_ci_yml to tool_wc--><g class="link" data-entity-1="ent0002" data-entity-2="ent0009" data-link-type="dependency" data-source-line="17" id="lnk12"><path d="M128.21,437.1579 C128.21,461.3779 128.21,491.7779 128.21,491.7779 C128.21,491.7779 287,491.7779 350.08,491.7779" fill="none" id="source_github_workflows_ci_yml-to-tool_wc" style="stroke:#181818;stroke-width:1;"/><polygon fill="#181818" points="356.08,491.7779,347.08,487.7779,351.08,491.7779,347.08,495.7779,356.08,491.7779" style="stroke:#181818;stroke-width:1;"/></g><!--link source_scripts_run_tachometer_profile_sh to tool_run--><g class="link" data-entity-1="ent0003" data-entity-2="ent0006" data-link-type="dependency" data-source-line="18" id="lnk13"><path d="M240.21,126.5179 C240.21,101.4479 240.21,69.3579 240.21,69.3579 C240.21,69.3579 306.55,69.3579 347.25,69.3579" fill="none" id="source_scripts_run_tachometer_profile_sh-to-tool_run" style="stroke:#181818;stroke-width:1;"/><polygon fill="#181818" points="353.25,69.3579,344.25,65.3579,348.25,69.3579,344.25,73.3579,353.25,69.3579" style="stroke:#181818;stroke-width:1;"/></g><!--link source_scripts_run_tachometer_profile_sh to tool_summarize--><g class="link" data-entity-1="ent0003" data-entity-2="ent0007" data-link-type="dependency" data-source-line="19" id="lnk14"><path d="M249.77,155.7779 C277.47,155.7779 299.45,155.7779 322.37,155.7779" fill="none" id="source_scripts_run_tachometer_profile_sh-to-tool_summarize" style="stroke:#181818;stroke-width:1;"/><polygon fill="#181818" points="328.37,155.7779,319.37,151.7779,323.37,155.7779,319.37,159.7779,328.37,155.7779" style="stroke:#181818;stroke-width:1;"/></g><!--link source_scripts_run_tachometer_profile_sh to tool_tachometer--><g class="link" data-entity-1="ent0003" data-entity-2="ent0008" data-link-type="dependency" data-source-line="20" id="lnk15"><path d="M234.21,185.1579 C234.21,209.3779 234.21,239.7779 234.21,239.7779 C234.21,239.7779 279.02,239.7779 320.7,239.7779" fill="none" id="source_scripts_run_tachometer_profile_sh-to-tool_tachometer" style="stroke:#181818;stroke-width:1;"/><polygon fill="#181818" points="326.7,239.7779,317.7,235.7779,321.7,239.7779,317.7,243.7779,326.7,239.7779" style="stroke:#181818;stroke-width:1;"/></g><?plantuml-src dPFDJkim48NtUOfHkswAGEBks70Rn08sPOba-JgJU5J74zaJHU7fSLgIL1NYLYpjyvtvyrX87C8Z1g6AZ1PY7-6DsP6luTaBrk5qcJci18GXK6q5IWfeHY6B1_Aj3hg1Q7N9_MYij8juffHOwSv9mLvUTOFmmfvZgyqvOxXfsQENlGoff36yzhKxHr9HA4EBm44iPpC2gxmciTs_RS_XK3dkuzPGFZJktT-bv990B5FnxE8AT8J8NJ2eJYOrcvGXbKomtjqKjyNkF44qWLg9sz1v9TfORbBKeDh05JdCe_qvqvTTVMzNqSuvZUEkX9K-3ZUrOT4Sk9DZi36i-bBKfC2ws1LtZtycPqM-NEZnT4ca8XOW7Ixrs3MD3lI12pLVNR9BCmkyt5tIlLcetipgVvvZitdullMhZUCKhePxartzQhCf8RzmpMFzXNUHCy-2qrpJztiAkhNxO-WXsnljVLh9sqc5zCN2q39vYNdsTrhPUn1BeToadoR3QO7p3DFoZC4_0G00?></g></svg>
