<?plantuml 1.2026.2?><svg xmlns="http://www.w3.org/2000/svg" xmlns:xlink="http://www.w3.org/1999/xlink" contentStyleType="text/css" data-diagram-type="DESCRIPTION" height="613px" preserveAspectRatio="none" style="width:510px;height:613px;background:#FFFFFF;" version="1.1" viewBox="0 0 510 613" width="510px" zoomAndPan="magnify"><title>Certifications Tooling Integrations</title><defs/><g><g class="title" data-source-line="1"><text fill="#000000" font-family="Monospace" font-size="14" font-weight="bold" lengthAdjust="spacing" textLength="238.7027" x="129.0375" y="24.9659">Certifications&#160;Tooling&#160;Integrations</text></g><!--entity source_github_workflows_ci_yml--><g class="entity" data-qualified-name="source_github_workflows_ci_yml" data-source-line="7" id="ent0002"><rect fill="#E0F2FE" height="58.1358" rx="2.5" ry="2.5" style="stroke:#181818;stroke-width:0.5;" width="182.6234" x="39.08" y="378.7079"/><text fill="#000000" font-family="Monospace" font-size="14" lengthAdjust="spacing" textLength="162.6234" x="49.08" y="403.6739">.github/workflows/ci.yml</text><text fill="#000000" font-family="Monospace" font-size="14" lengthAdjust="spacing" textLength="105.3356" x="49.08" y="422.7418">3&#160;detected&#160;tools</text></g><!--entity source_github_workflows_secret_scan_yml--><g class="entity" data-qualified-name="source_github_workflows_secret_scan_yml" data-source-line="8" id="ent0003"><rect fill="#E0F2FE" height="58.1358" rx="2.5" ry="2.5" style="stroke:#181818;stroke-width:0.5;" width="246.7851" x="7" y="508.7079"/><text fill="#000000" font-family="Monospace" font-size="14" lengthAdjust="spacing" textLength="226.7851" x="17" y="533.6739">.github/workflows/secret-scan.yml</text><text fill="#000000" font-family="Monospace" font-size="14" lengthAdjust="spacing" textLength="105.3356" x="17" y="552.7418">2&#160;detected&#160;tools</text></g><!--entity source_scripts_run_tachometer_profile_sh--><g class="entity" data-qualified-name="source_scripts_run_tachometer_profile_sh" data-source-line="9" id="ent0004"><rect fill="#E0F2FE" height="58.1358" rx="2.5" ry="2.5" style="stroke:#181818;stroke-width:0.5;" width="242.2912" x="9.25" y="126.7079"/><text fill="#000000" font-family="Monospace" font-size="14" lengthAdjust="spacing" textLength="222.2912" x="19.25" y="151.6739">scripts/run_tachometer_profile.sh</text><text fill="#000000" font-family="Monospace" font-size="14" lengthAdjust="spacing" textLength="105.3356" x="19.25" y="170.7418">3&#160;detected&#160;tools</text></g><!--entity tool_actions_checkout--><g class="entity" data-qualified-name="tool_actions_checkout" data-source-line="10" id="ent0005"><path d="M343.1221,475.6036 C346.9739,469.4446 351.7165,469.5851 355.446,475.7262 C358.7517,468.9632 363.7534,470.2122 367.792,474.9387 C372.4123,467.7913 376.6729,467.9161 381.3139,474.919 C385.5887,468.6356 389.4213,469.6236 393.5173,475.1045 C396.8488,470.4186 402.0624,470.5722 404.8426,475.7382 C407.5408,470.0805 413.8073,469.5886 417.3845,474.7161 C421.4641,468.6788 426.7619,468.7384 431.135,474.3702 C436.3096,468.9347 441.0712,469.4348 443.9216,476.7085 C446.8926,470.5845 452.3729,470.6686 455.4115,476.6443 C459.3803,470.8108 463.7644,471.5678 467.7744,476.5974 C477.4557,479.007 478.7659,485.1667 473.7682,492.955 C479.2131,501.4122 477.748,506.5155 467.8047,509.3885 C465.5571,515.0599 460.1973,515.5312 457.0214,510.3073 C453.4344,516.8175 447.2723,517.4068 442.6811,511.4636 C439.9476,517.3661 435.9771,518.9815 430.7471,514.2708 C427.4662,520.7747 422.9701,520.5988 418.8901,515.0573 C416.3617,522.4965 409.8443,522.9634 405.836,516.4411 C400.9327,522.8389 395.4736,520.7632 392.9865,514.0695 C389.0506,520.8475 383.1289,520.6921 379.5581,513.7131 C375.0234,519.2315 370.3351,517.7529 367.6615,511.7855 C363.7843,516.903 358.4253,516.5251 355.8814,510.3898 C351.4205,515.8529 345.1986,516.5887 341.9371,509.0986 C334.8391,505.0471 333.4377,497.0642 342.0187,493.0927 C333.7764,487.0645 334.7235,480.5819 343.1221,475.6036" fill="#FEF3C7" style="stroke:#181818;stroke-width:0.5;"/><text fill="#000000" font-family="Monospace" font-size="14" lengthAdjust="spacing" textLength="111.9156" x="348.69" y="497.2039">actions/checkout</text></g><!--entity tool_find--><g class="entity" data-qualified-name="tool_find" data-source-line="11" id="ent0006"><path d="M386.4642,308.5613 C390.4304,299.2955 399.6896,297.6251 405.3051,306.8838 C412.4454,297.6261 420.2518,298.3226 425.0912,309.1504 C435.3844,310.479 436.087,316.8855 431.8861,324.592 C438.0652,332.6271 436.0172,339.8425 425.625,341.874 C424.4182,352.9132 415.1516,356.2273 406.7954,349.4153 C396.3041,356.6106 389.7173,352.9053 386.4064,341.5312 C377.9249,338.5998 377.3264,330.45 384.0838,325.3335 C375.9835,319.8248 377.7734,311.6869 386.4642,308.5613" fill="#FEF3C7" style="stroke:#181818;stroke-width:0.5;"/><text fill="#000000" font-family="Monospace" font-size="14" lengthAdjust="spacing" textLength="25.6899" x="391.8" y="329.2039">find</text></g><!--entity tool_gitleaks_gitleaks_action--><g class="entity" data-qualified-name="tool_gitleaks_gitleaks_action" data-source-line="12" id="ent0007"><path d="M321.8066,560.893 C325.947,553.5143 330.177,554.0066 335.4158,559.7541 C339.3275,554.2092 344.1595,554.4052 347.283,560.5539 C350.5392,554.6947 355.0225,554.979 358.3929,560.4418 C361.5446,555.0893 366.4898,553.4346 370.5706,559.4461 C373.2564,553.6664 379.1413,551.9679 382.8772,558.3866 C387.266,552.241 391.9879,554.4888 394.9286,559.897 C397.4946,555.0278 401.0411,554.0315 404.7422,558.733 C408.7749,551.4053 415.2627,553.4639 418.6078,559.4491 C421.058,555.0407 425.717,554.7365 428.5231,559.0442 C432.0761,553.319 436.2952,553.4517 440.2087,558.6588 C444.9545,553.5886 450.9864,553.3013 454.1267,560.4827 C457.125,555.3534 462.1092,554.0673 466.0206,559.4495 C469.1513,554.2607 472.7591,554.0943 476.2436,559.0946 C481.4706,553.34 485.3826,554.1017 488.5387,561.0923 C498.1289,561.8242 501.5936,568.5209 497.8693,577.0418 C503.7777,587.3892 498.9816,594.2098 487.593,594.1943 C484.034,598.7655 480.1213,598.1223 477.2972,593.3818 C474.7918,601.1453 469.7892,601.7071 464.4896,596.0479 C461.3635,601.1547 458.1417,601.0319 454.2266,596.927 C449.7634,602.3778 444.9766,604.0043 440.689,596.7401 C437.2687,602.7809 432.6114,602.7686 428.624,597.3365 C426.189,603.7211 422.8242,604.0873 418.0516,599.6122 C414.3675,605.4364 410.0873,606.0617 405.3591,600.8085 C400.5663,605.4504 396.3759,605.6466 392.9081,599.3062 C389.1428,603.9129 383.8424,603.9518 381.2412,598.0177 C377.7598,603.3919 373.471,602.4789 370.6738,597.3305 C366.9166,604.1314 361.6216,603.4254 358.0792,597.124 C353.7449,601.5215 349.1875,601.0186 346.4251,595.3111 C342.5541,600.9883 337.1276,598.6124 334.9768,593.4879 C332.061,599.9809 326.3037,600.2292 322.5763,594.2979 C312.8682,591.6607 311.3088,583.8995 317.6431,576.7519 C310.6884,570.4309 313.5918,563.2313 321.8066,560.893" fill="#FEF3C7" style="stroke:#181818;stroke-width:0.5;"/><text fill="#000000" font-family="Monospace" font-size="14" lengthAdjust="spacing" textLength="151.7174" x="328.79" y="581.2039">gitleaks/gitleaks-action</text></g><!--entity tool_run--><g class="entity" data-qualified-name="tool_run" data-source-line="13" id="ent0008"><path d="M386.3102,56.8706 C391.1818,47.7293 399.4848,46.1296 406.5451,54.3143 C412.4087,46.5504 420.7335,48.2883 424.1327,56.9525 C433.7223,57.6613 439.4116,62.4144 433.9244,72.5737 C439.1585,82.0202 435.6565,87.44 425.283,88.3228 C425.0446,101.0475 418.7131,106.0421 406.7197,99.8709 C395.813,104.9036 388.6506,103.4176 387.9502,89.6703 C378.2893,88.8356 374.5011,80.744 379.8539,72.7327 C374.7985,64.6057 377.2147,59.2377 386.3102,56.8706" fill="#FEF3C7" style="stroke:#181818;stroke-width:0.5;"/><text fill="#000000" font-family="Monospace" font-size="14" lengthAdjust="spacing" textLength="23.0859" x="393.1" y="77.2039">run</text></g><!--entity tool_summarize--><g class="entity" data-qualified-name="tool_summarize" data-source-line="14" id="ent0009"><path d="M362.1762,139.7082 C367.3705,132.088 372.6079,133.6617 377.0354,140.4963 C380.6519,133.3452 386.3594,133.5795 390.4402,140.0389 C395.2742,132.5754 400.0409,131.3054 406.2459,138.5673 C410.3067,131.1997 417.4065,131.4657 421.0306,139.0007 C425.6151,132.1413 432.5065,132.4184 435.7224,140.3593 C439.3589,134.5447 446.059,133.9823 449.2217,140.8631 C458.5894,140.9338 462.6994,148.7506 457.6093,156.5512 C463.5539,165.1643 459.8813,171.1668 450.2864,172.7589 C446.5044,180.6105 438.9145,180.5184 433.9962,174.0518 C430.6899,182.1689 425.4083,181.6599 420.1495,176.0165 C417.3574,183.3974 410.4739,182.8845 406.4146,177.3659 C401.5856,182.9427 396.6155,183.9218 392.2781,176.8179 C386.7202,182.4858 380.3988,181.7947 377.3019,174.0665 C373.112,181.7863 366.6219,181.8264 362.7476,173.7753 C352.1876,172.9199 350.2551,163.6176 355.6971,156.3045 C350.3833,149.1206 351.4492,140.6298 362.1762,139.7082" fill="#FEF3C7" style="stroke:#181818;stroke-width:0.5;"/><text fill="#000000" font-family="Monospace" font-size="14" lengthAdjust="spacing" textLength="73.2617" x="368.01" y="161.2039">summarize</text></g><!--entity tool_tachometer--><g class="entity" data-qualified-name="tool_tachometer" data-source-line="15" id="ent0010"><path d="M360.9872,223.6907 C363.7607,218.6174 368.316,218.9775 371.0474,223.7338 C375.1284,217.5092 380.4757,218.9347 383.9326,224.4206 C387.2505,218.9344 390.5063,218.5078 394.2478,224.0235 C397.1386,217.1195 401.6921,217.0811 406.4258,222.1488 C410.2408,216.9114 414.6324,219.0105 416.9133,223.7599 C420.0461,218.6305 424.0749,218.416 427.596,223.3474 C431.4374,217.506 436.3407,218.6284 439.4076,224.1523 C442.476,218.4488 447.1169,219.7477 450.0923,224.2497 C458.3208,228.061 459.0021,235.0747 451.8396,240.5371 C459.86,245.5006 459.341,251.1823 452.0084,256.3101 C448.8261,261.712 444.5387,262.4527 440.6112,257.0998 C437.9529,263.7654 432.8921,264.0238 428.378,259.0502 C424.4125,264.4338 421.0946,263.6977 417.3771,258.7852 C414.9691,264.4725 409.7053,264.6148 406.7016,259.3666 C403.2925,264.1032 398.195,264.5201 395.0793,259.0332 C391.0547,262.8121 386.3451,263.0921 384.2126,256.959 C381.213,263.9778 375.0763,263.2166 371.0372,258.0863 C367.4931,262.5639 361.867,262.1996 359.5147,256.7087 C350.7079,255.5597 347.7525,247.3143 352.6287,240.3911 C347.9121,230.9882 349.3316,224.8994 360.9872,223.6907" fill="#FEF3C7" style="stroke:#181818;stroke-width:0.5;"/><text fill="#000000" font-family="Monospace" font-size="14" lengthAdjust="spacing" textLength="76.4677" x="366.41" y="245.2039">tachometer</text></g><!--entity tool_wc--><g class="entity" data-qualified-name="tool_wc" data-source-line="16" id="ent0011"><path d="M390.5962,391.873 C394.9558,385.5695 399.2731,383.3169 404.8065,390.6498 C410.8608,382.7027 416.9886,385.8013 420.8509,392.9757 C430.1137,394.35 433.8759,399.7675 428.4074,408.372 C435.4495,416.4738 432.3628,423.2605 422.1822,424.8596 C421.788,435.696 413.7899,438.1164 405.9078,432.0834 C397.5169,437.1341 390.6553,435.898 388.9117,424.9997 C380.3602,422.7616 377.4012,415.941 383.3053,408.7237 C377.8814,399.6441 380.9703,394.4409 390.5962,391.873" fill="#FEF3C7" style="stroke:#181818;stroke-width:0.5;"/><text fill="#000000" font-family="Monospace" font-size="14" lengthAdjust="spacing" textLength="17.7239" x="395.78" y="413.2039">wc</text></g><g class="entity" data-qualified-name="toolingGraphSummary" data-source-line="26" id="ent0020"><path d="M26.64,46.0679 L26.64,91.4799 L234.1512,91.4799 L234.1512,56.0679 L224.1512,46.0679 L26.64,46.0679" fill="#FEFFDD" style="stroke:#181818;stroke-width:0.5;"/><path d="M224.1512,46.0679 L224.1512,56.0679 L234.1512,56.0679 L224.1512,46.0679" fill="#FEFFDD" style="stroke:#181818;stroke-width:1;"/><text fill="#000000" font-family="Monospace" font-size="13" lengthAdjust="spacing" textLength="186.5112" x="32.64" y="64.9649">Scanned&#160;3&#160;tooling&#160;entrypoints.</text><text fill="#000000" font-family="Monospace" font-size="13" lengthAdjust="spacing" textLength="171.7822" x="32.64" y="82.6709">Detected&#160;7&#160;third-party&#160;tools.</text></g><!--link source_github_workflows_ci_yml to tool_actions_checkout--><g class="link" data-entity-1="ent0002" data-entity-2="ent0005" data-link-type="dependency" data-source-line="17" id="lnk12"><path d="M222.19,415.9479 C279.52,415.9479 342.5,415.9479 342.5,415.9479 C342.5,415.9479 342.5,438.8379 342.5,460.9479" fill="none" id="source_github_workflows_ci_yml-to-tool_actions_checkout" style="stroke:#181818;stroke-width:1;"/><polygon fill="#181818" points="342.5,466.9479,346.5,457.9479,342.5,461.9479,338.5,457.9479,342.5,466.9479" style="stroke:#181818;stroke-width:1;"/></g><!--link source_github_workflows_ci_yml to tool_find--><g class="link" data-entity-1="ent0002" data-entity-2="ent0006" data-link-type="dependency" data-source-line="18" id="lnk13"><path d="M130.5,378.3979 C130.5,354.1679 130.5,323.7779 130.5,323.7779 C130.5,323.7779 300.3,323.7779 370.34,323.7779" fill="none" id="source_github_workflows_ci_yml-to-tool_find" style="stroke:#181818;stroke-width:1;"/><polygon fill="#181818" points="376.34,323.7779,367.34,319.7779,371.34,323.7779,367.34,327.7779,376.34,323.7779" style="stroke:#181818;stroke-width:1;"/></g><!--link source_github_workflows_ci_yml to tool_wc--><g class="link" data-entity-1="ent0002" data-entity-2="ent0011" data-link-type="dependency" data-source-line="19" id="lnk14"><path d="M222.1,399.5979 C278,399.5979 339.25,399.5979 374.46,399.5979" fill="none" id="source_github_workflows_ci_yml-to-tool_wc" style="stroke:#181818;stroke-width:1;"/><polygon fill="#181818" points="380.46,399.5979,371.46,395.5979,375.46,399.5979,371.46,403.5979,380.46,399.5979" style="stroke:#181818;stroke-width:1;"/></g><!--link source_github_workflows_secret_scan_yml to tool_actions_checkout--><g class="link" data-entity-1="ent0003" data-entity-2="ent0005" data-link-type="dependency" data-source-line="20" id="lnk15"><path d="M254.28,512.5079 C281.39,512.5079 303.2,512.5079 327.41,512.5079" fill="none" id="source_github_workflows_secret_scan_yml-to-tool_actions_checkout" style="stroke:#181818;stroke-width:1;"/><polygon fill="#181818" points="333.41,512.5079,324.41,508.5079,328.41,512.5079,324.41,516.5079,333.41,512.5079" style="stroke:#181818;stroke-width:1;"/></g><!--link source_github_workflows_secret_scan_yml to tool_gitleaks_gitleaks_action--><g class="link" data-entity-1="ent0003" data-entity-2="ent0007" data-link-type="dependency" data-source-line="21" id="lnk16"><path d="M254.28,559.0379 C274.15,559.0379 288.4,559.0379 307.33,559.0379" fill="none" id="source_github_workflows_secret_scan_yml-to-tool_gitleaks_gitleaks_action" style="stroke:#181818;stroke-width:1;"/><polygon fill="#181818" points="313.33,559.0379,304.33,555.0379,308.33,559.0379,304.33,563.0379,313.33,559.0379" style="stroke:#181818;stroke-width:1;"/></g><!--link source_scripts_run_tachometer_profile_sh to tool_run--><g class="link" data-entity-1="ent0004" data-entity-2="ent0008" data-link-type="dependency" data-source-line="22" id="lnk17"><path d="M242.5,126.5179 C242.5,101.4479 242.5,69.3579 242.5,69.3579 C242.5,69.3579 325.82,69.3579 371.87,69.3579" fill="none" id="source_scripts_run_tachometer_profile_sh-to-tool_run" style="stroke:#181818;stroke-width:1;"/><polygon fill="#181818" points="377.87,69.3579,368.87,65.3579,372.87,69.3579,368.87,73.3579,377.87,69.3579" style="stroke:#181818;stroke-width:1;"/></g><!--link source_scripts_run_tachometer_profile_sh to tool_summarize--><g class="link" data-entity-1="ent0004" data-entity-2="ent0009" data-link-type="dependency" data-source-line="23" id="lnk18"><path d="M251.88,155.7779 C287.27,155.7779 318.07,155.7779 346.68,155.7779" fill="none" id="source_scripts_run_tachometer_profile_sh-to-tool_summarize" style="stroke:#181818;stroke-width:1;"/><polygon fill="#181818" points="352.68,155.7779,343.68,151.7779,347.68,155.7779,343.68,159.7779,352.68,155.7779" style="stroke:#181818;stroke-width:1;"/></g><!--link source_scripts_run_tachometer_profile_sh to tool_tachometer--><g class="link" data-entity-1="ent0004" data-entity-2="ent0010" data-link-type="dependency" data-source-line="24" id="lnk19"><path d="M236.5,185.1579 C236.5,209.3779 236.5,239.7779 236.5,239.7779 C236.5,239.7779 295.77,239.7779 344.98,239.7779" fill="none" id="source_scripts_run_tachometer_profile_sh-to-tool_tachometer" style="stroke:#181818;stroke-width:1;"/><polygon fill="#181818" points="350.98,239.7779,341.98,235.7779,345.98,239.7779,341.98,243.7779,350.98,239.7779" style="stroke:#181818;stroke-width:1;"/></g><?plantuml-src dLJDZjiW4Bxp52XxjbDj3dlhPHklUcWlwR4IedXiK31ZmLYM-_I5U6qYQxFDxWtuVcQO6I135lWpU3ADKP8Cki1_8LhZMlxT4RH-FcGM6kA4t9jM4w-D1vK05ix6zTBBZWSjQnoJi94sm1LIGoC7InKw-Yaxu3_GOUYbkkOex7fquEX4KqmfsKlNscjAJ0fewe6Z9urifV1TsHhImv_zYFxSM1p3NfbowknlTuZ1AHAXZicZ3Jik0myuU0LY5ebL99GHKSGVZb-gn-huVe00oWCLGKatHthyIAHPBPBwLiYWlEafxFtW14cbiOlsNlGU6sEX3FhzoxtAnTjo4VGQKraSQhwJbtx6ocbGPnpeOfPinIiY5eG_LCVgyFoqA1lZwinEkosZJMCcps6_B8hPCwiM82zcnjOfNYUBucQBXw7hf3T_8RFMeoqtboMJyzcMFQhC6jMA_cUMYkBhsqMyMvZgUJTvLEpUaVjuPZSTRZMFtJsBgrMaV4ArjlWJsWmpXmHBZ-C_zk9bhqyNwucTugrTV6Y71UNnh_9JZyPHADctvI4-STB6rqNyicYQdsN983w9PFuF?></g></svg>
