<?plantuml 1.2026.2?><svg xmlns="http://www.w3.org/2000/svg" xmlns:xlink="http://www.w3.org/1999/xlink" contentStyleType="text/css" data-diagram-type="DESCRIPTION" height="277px" preserveAspectRatio="none" style="width:419px;height:277px;background:#FFFFFF;" version="1.1" viewBox="0 0 419 277" width="419px" zoomAndPan="magnify"><title>Certifications Tooling Integrations</title><defs/><g><g class="title" data-source-line="1"><text fill="#000000" font-family="Monospace" font-size="14" font-weight="bold" lengthAdjust="spacing" textLength="238.7027" x="83.5502" y="24.9659">Certifications&#160;Tooling&#160;Integrations</text></g><!--entity source_github_workflows_ci_yml--><g class="entity" data-qualified-name="source_github_workflows_ci_yml" data-source-line="7" id="ent0002"><rect fill="#E0F2FE" height="58.1358" rx="2.5" ry="2.5" style="stroke:#181818;stroke-width:0.5;" width="182.6234" x="15.33" y="126.7079"/><text fill="#000000" font-family="Monospace" font-size="14" lengthAdjust="spacing" textLength="162.6234" x="25.33" y="151.6739">.github/workflows/ci.yml</text><text fill="#000000" font-family="Monospace" font-size="14" lengthAdjust="spacing" textLength="105.3356" x="25.33" y="170.7418">3&#160;detected&#160;tools</text></g><!--entity tool_actions_checkout--><g class="entity" data-qualified-name="tool_actions_checkout" data-source-line="8" id="ent0003"><path d="M276.7121,55.6036 C280.5639,49.4446 285.3065,49.5851 289.036,55.7262 C292.3417,48.9632 297.3434,50.2122 301.382,54.9387 C306.0023,47.7913 310.2629,47.9161 314.9039,54.919 C319.1787,48.6356 323.0113,49.6236 327.1073,55.1045 C330.4388,50.4186 335.6524,50.5722 338.4326,55.7382 C341.1308,50.0805 347.3973,49.5886 350.9745,54.7161 C355.0541,48.6788 360.3519,48.7384 364.725,54.3702 C369.8996,48.9347 374.6612,49.4348 377.5116,56.7085 C380.4826,50.5845 385.9629,50.6686 389.0015,56.6443 C392.9703,50.8108 397.3544,51.5678 401.3644,56.5974 C411.0457,59.007 412.3559,65.1667 407.3582,72.955 C412.8031,81.4122 411.338,86.5155 401.3947,89.3885 C399.1471,95.0599 393.7873,95.5312 390.6114,90.3073 C387.0244,96.8175 380.8623,97.4068 376.2711,91.4636 C373.5376,97.3661 369.5671,98.9815 364.3371,94.2708 C361.0562,100.7747 356.5601,100.5988 352.4801,95.0573 C349.9517,102.4965 343.4343,102.9634 339.426,96.4411 C334.5227,102.8389 329.0636,100.7632 326.5765,94.0695 C322.6406,100.8475 316.7189,100.6921 313.1481,93.7131 C308.6134,99.2315 303.9251,97.7529 301.2515,91.7855 C297.3743,96.903 292.0153,96.5251 289.4714,90.3898 C285.0105,95.8529 278.7886,96.5887 275.5271,89.0986 C268.4291,85.0471 267.0277,77.0642 275.6087,73.0927 C267.3664,67.0645 268.3135,60.5819 276.7121,55.6036" fill="#FEF3C7" style="stroke:#181818;stroke-width:0.5;"/><text fill="#000000" font-family="Monospace" font-size="14" lengthAdjust="spacing" textLength="111.9156" x="282.28" y="77.2039">actions/checkout</text></g><!--entity tool_find--><g class="entity" data-qualified-name="tool_find" data-source-line="9" id="ent0004"><path d="M320.0642,140.5613 C324.0304,131.2955 333.2896,129.6251 338.9051,138.8838 C346.0454,129.6261 353.8518,130.3226 358.6912,141.1504 C368.9844,142.479 369.687,148.8855 365.4861,156.592 C371.6652,164.6271 369.6172,171.8425 359.225,173.874 C358.0182,184.9132 348.7516,188.2273 340.3954,181.4153 C329.9041,188.6106 323.3173,184.9053 320.0064,173.5312 C311.5249,170.5998 310.9264,162.45 317.6838,157.3335 C309.5835,151.8248 311.3734,143.6869 320.0642,140.5613" fill="#FEF3C7" style="stroke:#181818;stroke-width:0.5;"/><text fill="#000000" font-family="Monospace" font-size="14" lengthAdjust="spacing" textLength="25.6899" x="325.4" y="161.2039">find</text></g><!--entity tool_wc--><g class="entity" data-qualified-name="tool_wc" data-source-line="10" id="ent0005"><path d="M324.1962,223.873 C328.5558,217.5695 332.8731,215.3169 338.4065,222.6498 C344.4608,214.7027 350.5886,217.8013 354.4509,224.9757 C363.7137,226.35 367.4759,231.7675 362.0074,240.372 C369.0495,248.4738 365.9628,255.2605 355.7822,256.8596 C355.388,267.696 347.3899,270.1164 339.5078,264.0834 C331.1169,269.1341 324.2553,267.898 322.5117,256.9997 C313.9602,254.7616 311.0012,247.941 316.9053,240.7237 C311.4814,231.6441 314.5703,226.4409 324.1962,223.873" fill="#FEF3C7" style="stroke:#181818;stroke-width:0.5;"/><text fill="#000000" font-family="Monospace" font-size="14" lengthAdjust="spacing" textLength="17.7239" x="329.38" y="245.2039">wc</text></g><g class="entity" data-qualified-name="toolingGraphSummary" data-source-line="15" id="ent0009"><path d="M6,46.0679 L6,91.4799 L207.2842,91.4799 L207.2842,56.0679 L197.2842,46.0679 L6,46.0679" fill="#FEFFDD" style="stroke:#181818;stroke-width:0.5;"/><path d="M197.2842,46.0679 L197.2842,56.0679 L207.2842,56.0679 L197.2842,46.0679" fill="#FEFFDD" style="stroke:#181818;stroke-width:1;"/><text fill="#000000" font-family="Monospace" font-size="13" lengthAdjust="spacing" textLength="180.2842" x="12" y="64.9649">Scanned&#160;1&#160;tooling&#160;entrypoint.</text><text fill="#000000" font-family="Monospace" font-size="13" lengthAdjust="spacing" textLength="171.7822" x="12" y="82.6709">Detected&#160;3&#160;third-party&#160;tools.</text></g><!--link source_github_workflows_ci_yml to tool_actions_checkout--><g class="link" data-entity-1="ent0002" data-entity-2="ent0003" data-link-type="dependency" data-source-line="11" id="lnk6"><path d="M198.19,147.5979 C243.74,147.5979 289.2,147.5979 289.2,147.5979 C289.2,147.5979 289.2,124.7179 289.2,102.5979" fill="none" id="source_github_workflows_ci_yml-to-tool_actions_checkout" style="stroke:#181818;stroke-width:1;"/><polygon fill="#181818" points="289.2,96.5979,285.2,105.5979,289.2,101.5979,293.2,105.5979,289.2,96.5979" style="stroke:#181818;stroke-width:1;"/></g><!--link source_github_workflows_ci_yml to tool_find--><g class="link" data-entity-1="ent0002" data-entity-2="ent0004" data-link-type="dependency" data-source-line="12" id="lnk7"><path d="M198.18,163.9479 C238.13,163.9479 276.12,163.9479 303.94,163.9479" fill="none" id="source_github_workflows_ci_yml-to-tool_find" style="stroke:#181818;stroke-width:1;"/><polygon fill="#181818" points="309.94,163.9479,300.94,159.9479,304.94,163.9479,300.94,167.9479,309.94,163.9479" style="stroke:#181818;stroke-width:1;"/></g><!--link source_github_workflows_ci_yml to tool_wc--><g class="link" data-entity-1="ent0002" data-entity-2="ent0005" data-link-type="dependency" data-source-line="13" id="lnk8"><path d="M106.2,185.1579 C106.2,209.3779 106.2,239.7779 106.2,239.7779 C106.2,239.7779 249,239.7779 308.28,239.7779" fill="none" id="source_github_workflows_ci_yml-to-tool_wc" style="stroke:#181818;stroke-width:1;"/><polygon fill="#181818" points="314.28,239.7779,305.28,235.7779,309.28,239.7779,305.28,243.7779,314.28,239.7779" style="stroke:#181818;stroke-width:1;"/></g><?plantuml-src ZL4zJyCm4DtzAqxjt1JemCPI6iG0IncH8cDVOglENMHV5ENVuxIahH0I7UttuUVtn4j0s68KNtkZnJCb-60EdXfu9S4cdYvLm5f06A9ld83r4Sq4g7JmrEceMqXEMnucOQr3mYl4Ogtx82MJlEiMuOs9KwVDDSTmsp4XoLx676corzI4QqeEXJ9s21p5iJfJO54qNbp_jHuu7kh0GreRNunj-AHDVbmo4MqEpo4jG2T8t4U3rKbKdKMLyLKMmN9tLpwKEsK2znOM-lZHREdG7BYNeyLaLlqWrOp0ijoLc-tZhAmzsGjxElrc3EQ23-QC_XDmjNhwEy3DmYdBpUJ1A6B1EMXU-2NgpktxjjLnL7kZYNA_zpCAUSKuTkn92lKyrxy1SJxQLTvInjCOXS9SoUJz3G00?></g></svg>
